<svg width="20" height="20" viewBox="0 0 20 20" fill="none" xmlns="http://www.w3.org/2000/svg">
<g clip-path="url(#clip0_65_349)">
<mask id="mask0_65_349" style="mask-type:luminance" maskUnits="userSpaceOnUse" x="1" y="0" width="18" height="20">
<path d="M18.4875 0.419922H1.5127V19.5796H18.4875V0.419922Z" fill="white"/>
</mask>
<g mask="url(#mask0_65_349)">
<path d="M2.15723 6.2442V13.7556C2.15723 14.2352 2.41342 14.6785 2.82836 14.9175L9.33067 18.674C9.74555 18.913 10.2564 18.913 10.6713 18.674L17.1736 14.9175C17.5886 14.6785 17.8448 14.2352 17.8448 13.7556V6.2442C17.8448 5.76461 17.5886 5.3212 17.1736 5.08219L10.6713 1.32574C10.2564 1.08673 9.74555 1.08673 9.33067 1.32574L2.82678 5.08219C2.41185 5.3212 2.15723 5.76461 2.15723 6.2442Z" fill="#213147"/>
<path d="M11.4194 11.4565L10.492 14.0006C10.4669 14.0714 10.4669 14.1484 10.492 14.2192L12.0874 18.5968L13.9326 17.5307L11.718 11.4565C11.6677 11.3166 11.4696 11.3166 11.4194 11.4565Z" fill="#12AAFF"/>
<path d="M13.2786 7.1782C13.2282 7.03826 13.0302 7.03826 12.9799 7.1782L12.0526 9.72231C12.0274 9.79306 12.0274 9.87012 12.0526 9.94088L14.6664 17.1079L16.5116 16.0418L13.2786 7.1782Z" fill="#12AAFF"/>
<path d="M10.0001 1.60708C10.0456 1.60708 10.0913 1.61966 10.1321 1.64168L17.1688 5.70633C17.2505 5.75349 17.3008 5.84155 17.3008 5.93432V14.062C17.3008 14.1564 17.2505 14.2429 17.1688 14.29L10.1321 18.3547C10.0929 18.3782 10.0456 18.3892 10.0001 18.3892C9.95454 18.3892 9.90891 18.3767 9.86807 18.3547L2.83138 14.2932C2.74965 14.246 2.69936 14.158 2.69936 14.0652V5.93589C2.69936 5.84155 2.74965 5.75506 2.83138 5.7079L9.86807 1.64325C9.90891 1.61966 9.95454 1.60708 10.0001 1.60708ZM10.0001 0.419922C9.75017 0.419922 9.49875 0.48439 9.27396 0.614899L2.23884 4.67797C1.78933 4.93742 1.5127 5.417 1.5127 5.93589V14.0636C1.5127 14.5825 1.78933 15.0621 2.23884 15.3215L9.27555 19.3861C9.50026 19.5151 9.75017 19.5812 10.0017 19.5812C10.2516 19.5812 10.503 19.5167 10.7278 19.3861L17.7645 15.3215C18.214 15.0621 18.4906 14.5825 18.4906 14.0636V5.93589C18.4906 5.417 18.214 4.93742 17.7645 4.67797L10.7262 0.614899C10.5014 0.48439 10.25 0.419922 10.0001 0.419922Z" fill="#9DCCED"/>
<path d="M5.34619 17.1174L5.99375 15.3438L7.29672 16.4271L6.07863 17.5404L5.34619 17.1174Z" fill="#213147"/>
<path d="M9.4076 5.35449H7.62365C7.49004 5.35449 7.3706 5.43783 7.32502 5.56362L3.50098 16.0515L5.3462 17.1176L9.55693 5.56834C9.59617 5.46456 9.5192 5.35449 9.4076 5.35449Z" fill="white"/>
<path d="M12.5289 5.35449H10.745C10.6114 5.35449 10.492 5.43783 10.4463 5.56362L6.08008 17.539L7.9253 18.6051L12.6783 5.56834C12.716 5.46456 12.6389 5.35449 12.5289 5.35449Z" fill="white"/>
</g>
</g>
<defs>
<clipPath id="clip0_65_349">
<rect width="20" height="20" fill="white"/>
</clipPath>
</defs>
</svg>
