<svg width="16" height="16" viewBox="0 0 16 16" fill="none" xmlns="http://www.w3.org/2000/svg">
<g clip-path="url(#clip0_555_2691)">
<path d="M8 16C12.4183 16 16 12.4183 16 8C16 3.58172 12.4183 0 8 0C3.58172 0 0 3.58172 0 8C0 12.4183 3.58172 16 8 16Z" fill="#627EEA"/>
<path d="M8.24902 2V6.435L11.9975 8.11L8.24902 2Z" fill="white" fill-opacity="0.602"/>
<path d="M8.249 2L4.5 8.11L8.249 6.435V2Z" fill="white"/>
<path d="M8.24902 10.9836V13.9971L12 8.80762L8.24902 10.9836Z" fill="white" fill-opacity="0.602"/>
<path d="M8.249 13.9971V10.9831L4.5 8.80762L8.249 13.9971Z" fill="white"/>
<path d="M8.24902 10.287L11.9975 8.11052L8.24902 6.43652V10.287Z" fill="white" fill-opacity="0.2"/>
<path d="M4.5 8.11052L8.249 10.287V6.43652L4.5 8.11052Z" fill="white" fill-opacity="0.602"/>
</g>
<defs>
<clipPath id="clip0_555_2691">
<rect width="16" height="16" fill="white"/>
</clipPath>
</defs>
</svg>
