<svg version="1.2" xmlns="http://www.w3.org/2000/svg" viewBox="0 0 150 150" width="150" height="150">
	<title>deusd-svg</title>
	<style>
		.s0 { opacity: 1;fill: #fd95a4 } 
		.s1 { fill: #fd81ae } 
		.s2 { fill: #fefdfe } 
		.s3 { fill: #fe6fb2 } 
		.s4 { fill: #fd61bb } 
		.s5 { fill: #fa53c3 } 
		.s6 { fill: #ff7aaf } 
		.s7 { fill: #ff56bf } 
		.s8 { fill: #ff70b1 } 
		.s9 { fill: #fb48c4 } 
		.s10 { opacity: 1;fill: #e54fc9 } 
		.s11 { fill: #ff6ab4 } 
		.s12 { opacity: 1;fill: #ce4fcc } 
		.s13 { fill: #e24dc9 } 
		.s14 { fill: #fd83ab } 
		.s15 { fill: #cc4ccc } 
		.s16 { opacity: .9;fill: #ae4fd0 } 
		.s17 { fill: #ff62bb } 
		.s18 { fill: #ff6db4 } 
		.s19 { fill: #fe5abf } 
		.s20 { fill: #ff7aad } 
		.s21 { fill: #b750d0 } 
		.s22 { fill: #ff8fa4 } 
		.s23 { opacity: 1;fill: #fc70b4 } 
		.s24 { fill: #ee45c6 } 
		.s25 { fill: #ff54bf } 
		.s26 { fill: #df49c9 } 
		.s27 { fill: #ce48cb } 
		.s28 { fill: #fef8fc } 
		.s29 { fill: #fdc0e8 } 
		.s30 { fill: #a050d2 } 
		.s31 { fill: #9152d5 } 
		.s32 { fill: #fd5dbc } 
		.s33 { fill: #fa49c4 } 
		.s34 { fill: #f84ac5 } 
		.s35 { fill: #8053d8 } 
		.s36 { fill: #c687e0 } 
		.s37 { fill: #e7bbec } 
		.s38 { fill: #faf2fb } 
		.s39 { fill: #db4fcb } 
		.s40 { fill: #9351d4 } 
		.s41 { fill: #b04ed0 } 
		.s42 { fill: #6056dc } 
		.s43 { opacity: 1;fill: #eb4fc6 } 
		.s44 { fill: #7851d8 } 
		.s45 { opacity: 1;fill: #545adf } 
		.s46 { opacity: 1;fill: #cd53cd } 
		.s47 { fill: #b94ecf } 
		.s48 { fill: #5158df } 
		.s49 { fill: #9fa3ed } 
		.s50 { fill: #a152d3 } 
		.s51 { opacity: .9;fill: #b152d1 } 
		.s52 { fill: #8853d6 } 
		.s53 { fill: #9756d5 } 
		.s54 { fill: #6b56db } 
	</style>
	<g>
		<path fill-rule="evenodd" class="s0" d="m64.1-0.4q11.3 0 22.5 0 29.7 5.5 48 29.3 0.2 0.8-0.3 1.5-1.6-2.1-4.2-2.3-25.4-27.4-63-25.5-0.8-0.8-2.2-1.1-0.9-0.8-0.8-1.9z"/>
	</g>
	<g>
		<path fill-rule="evenodd" class="s1" d="m62.6-0.4q0.8 0 1.5 0-0.1 1.1 0.8 1.9 1.4 0.3 2.2 1.1-6 1.2-12 2.3-0.7-1.5-1.5-3 4.7-0.9 9-2.3z"/>
	</g>
	<g>
		<path fill-rule="evenodd" class="s2" d="m67.1 2.6q37.6-1.9 63 25.5 7 9.6 12 20.3 1.6 6.2 3.8 12 0.8 9.3 0.7 18.7-1.2 8.7-3 17.3-2.3 4.2-3.7 9-3.1 5.8-6.8 11.2-3.7 5.2-8.2 9.8-32.8 29.3-75 16.1-50.2-22.4-47.3-77.6 1.6-4.7 2.3-9.8 2.6-6.7 5.2-13.5 2.9-3.9 5.3-8.2 3.1-4.3 6.7-8.3 4.9-4.9 10.5-9 4.6-3 9-6 6.6-3 13.5-5.2 6-1.1 12-2.3z"/>
	</g>
	<g>
		<path fill-rule="evenodd" class="s3" d="m53.6 1.9q0.8 1.5 1.5 3-6.9 2.2-13.5 5.2-0.5-1.3-1.5-2.2 6.2-4.1 13.5-6z"/>
	</g>
	<g>
		<path fill-rule="evenodd" class="s4" d="m40.1 7.9q1 0.9 1.5 2.2-4.4 3-9 6-0.7-1.5-1.5-3 3.9-3.5 9-5.2z"/>
	</g>
	<g>
		<path fill-rule="evenodd" class="s5" d="m31.1 13.1q0.8 1.5 1.5 3-5.6 4.1-10.5 9-1.3-0.9-3-1.5 5-6.5 12-10.5z"/>
	</g>
	<g>
		<path fill-rule="evenodd" class="s6" d="m116.6 36.4q-14-5.4-26.6-13.5-0.6 3-0.4 6-1.3-3.6-0.3-7.5 1.2-2 3.3-1.1 14.4 4.8 24 16.1z"/>
	</g>
	<g>
		<path fill-rule="evenodd" class="s7" d="m55.1 31.1q-4.6-2.9-9.7-5.2 6.1-5.3 14.2-5.7 1.3 4.3 0.4 8.7-2.2 1.6-4.9 2.2z"/>
	</g>
	<g>
		<path fill-rule="evenodd" class="s8" d="m116.6 36.4q4.1 2.9 6 7.5-11.9-6.5-24-10.5-5.1-1.2-9-4.5-0.2-3 0.4-6 12.6 8.1 26.6 13.5z"/>
	</g>
	<g>
		<path fill-rule="evenodd" class="s9" d="m45.4 25.9q5.1 2.3 9.7 5.2-5 2.7-9.7 6-5.2-1.1-9-4.5 3.7-4.4 9-6.7z"/>
	</g>
	<g>
		<path fill-rule="evenodd" class="s10" d="m19.1 23.6q1.7 0.6 3 1.5-3.6 4-6.7 8.3-1.4-0.9-2.3-2.3 2.6-4.1 6-7.5z"/>
	</g>
	<g>
		<path fill-rule="evenodd" class="s11" d="m122.6 43.9q2.8 2.8 3.8 6.7-7.4-2.3-13.9-6.7-0.5 0.6-0.4 1.5-5.7-7.2-13.5-12 12.1 4 24 10.5z"/>
	</g>
	<g>
		<path fill-rule="evenodd" class="s12" d="m13.1 31.1q0.9 1.4 2.3 2.3-2.4 4.3-5.3 8.2-2.1-1.6-1.5-3.7 2-3.6 4.5-6.8z"/>
	</g>
	<g>
		<path fill-rule="evenodd" class="s13" d="m36.4 32.6q3.8 3.4 9 4.5-4.2 3.4-7.5 7.5-4.2-2.8-9-4.5 1.9-2 3.4-4.5 1.6-2.2 4.1-3z"/>
	</g>
	<g>
		<path fill-rule="evenodd" class="s14" d="m130.1 28.1q2.6 0.2 4.2 2.3 0.5-0.7 0.3-1.5 7 8.7 10.5 19.5-0.8-0.5-1.1-1.5-0.7 1.5-1.5 0-0.5 0.6-0.4 1.5-5-10.7-12-20.3z"/>
	</g>
	<g>
		<path fill-rule="evenodd" class="s15" d="m28.9 40.1q4.8 1.7 9 4.5-2.7 3.8-5.3 7.5-3.6-3.1-8.2-4.5 1.7-4 4.5-7.5z"/>
	</g>
	<g>
		<path fill-rule="evenodd" class="s16" d="m8.6 37.9q-0.6 2.1 1.5 3.7-2.6 6.8-5.2 13.5-1.4-0.8-3-0.7 2.1-8.8 6.7-16.5z"/>
	</g>
	<g>
		<path fill-rule="evenodd" class="s17" d="m126.4 50.6q3.5 5.8 4.5 12.8-1.1-2.2-2.3-4.5-5.4-3.1-10.5-4.5-3-4.5-6-9-0.1-0.9 0.4-1.5 6.5 4.4 13.9 6.7z"/>
	</g>
	<g>
		<path fill-rule="evenodd" class="s18" d="m64.9 51.4q0.4-1 1.5-0.8 3.4-0.4 6 1.9 4.9 4.6 10.5 8.3 1.8 1.2 2.2 3.3-0.3 1.1-1.5 1.5-2.3-2.3-5.2-3.7-0.4-1-1.5-0.8 0-1.7-1.5-2.6-4.4-3.1-8.3-6.7-1-0.6-2.2-0.4z"/>
	</g>
	<g>
		<path fill-rule="evenodd" class="s19" d="m64.9 51.4q1.2-0.2 2.2 0.4 3.9 3.6 8.3 6.7 1.5 0.9 1.5 2.6 0 0.8 0 1.5-1.5-1.6-3.8-1.5 0 2.7 0 5.3-0.4 0-0.7 0 0.3-2.8-0.8-5.3-2.5 1.9-0.7 4.5-1.8-1.7-2.3-4.5-2.1-1.9-4.5-3.3 2.1-0.4 0.8-1.5-1.6-0.6-2.7-1.9-1.1 0.9-2.6 0.7 2-2.7 5.3-3.7z"/>
	</g>
	<g>
		<path fill-rule="evenodd" class="s20" d="m88.1 62.6q-1.2 1.3-3 1.5-0.4-2.1-2.2-3.4-5.6-3.6-10.5-8.2-2.6-2.3-6-1.9 2.6-1.7 6-1.5 0.7-0.1 1.1-0.7 5.5 5.1 11.6 9.3 2.5 1.9 3 4.9z"/>
	</g>
	<g>
		<path fill-rule="evenodd" class="s21" d="m24.4 47.6q4.6 1.4 8.2 4.5-2.2 4.9-3.7 9.8 0.3-1.7-0.8-3-4.1-1.5-6.7-4.5 0.6-3.9 3-6.8z"/>
	</g>
	<g>
		<path fill-rule="evenodd" class="s22" d="m88.1 62.6q-0.5-3-3-4.9-6.1-4.2-11.6-9.3-0.4 0.6-1.1 0.7 0-2.6 0-5.2 2.2 0 4.5 0-0.3 2.9 0.7 5.6 9.6 1.7 15 9.8-2.4 1.4-4.5 3.3z"/>
	</g>
	<g>
		<path fill-rule="evenodd" class="s23" d="m145.1 48.4q3 5.9 3.8 12.7-1.7 0.1-3-0.7-2.2-5.8-3.8-12-0.1-0.9 0.4-1.5 0.8 1.5 1.5 0 0.3 1 1.1 1.5z"/>
	</g>
	<g>
		<path fill-rule="evenodd" class="s24" d="m70.9 65.6q0.7 0.4 1.5 0.8 0.3 0 0.7 0-0.1 0.7-0.7 1.1 9 7.1 18 14.3 2.2 1.6 3 4.1 0 0.4 0 0.7-18-14.2-35.3-29.2 0.8-1.1 1.5-2.3 1.5 0.2 2.6-0.7 1.1 1.3 2.7 1.9 1.3 1.1-0.8 1.5 2.4 1.4 4.5 3.3 0.5 2.8 2.3 4.5z"/>
	</g>
	<g>
		<path fill-rule="evenodd" class="s25" d="m130.9 63.4q0.9 2.1 0.7 4.5-5.9-1.8-10.1-6-0.5 0.6-0.4 1.5-1.7-4.3-3-9 5.1 1.4 10.5 4.5 1.2 2.3 2.3 4.5z"/>
	</g>
	<g>
		<path fill-rule="evenodd" class="s26" d="m58.1 57.4q17.3 15 35.3 29.2-0.6 1.7-1.5 3-0.8-2.5-3-4.1-15.6-12.6-31.1-25.1-0.4 1-1.2 1.5-0.2-2.7 1.5-4.5z"/>
	</g>
	<g>
		<path fill-rule="evenodd" class="s27" d="m91.9 89.6q-0.5 1.4-1.5 2.3-5.5-2.9-9.8-7.5 0.7-3.2-2.2-3.8-0.4-0.9-1.5-0.7-10.2-7.6-20.3-15 0-1.5 0-3 0.8-0.5 1.1-1.5 15.6 12.5 31.2 25.1 2.2 1.6 3 4.1z"/>
	</g>
	<g>
		<path fill-rule="evenodd" class="s28" d="m72.4 66.4q-0.8-0.4-1.5-0.8-1.8-2.6 0.7-4.5 1.1 2.5 0.8 5.3z"/>
	</g>
	<g>
		<path fill-rule="evenodd" class="s29" d="m76.9 61.1q1.1-0.2 1.5 0.8-1.1 2.7-0.8 6-1.1-2.4-0.7-5.3 0-0.7 0-1.5z"/>
	</g>
	<g>
		<path fill-rule="evenodd" class="s30" d="m21.4 54.4q2.6 3 6.7 4.5 1.1 1.3 0.8 3-1.1 4.4-1.5 9-3.7-3.8-9-5.3 0.6-5.9 3-11.2z"/>
	</g>
	<g>
		<path fill-rule="evenodd" class="s31" d="m1.9 54.4q1.6-0.1 3 0.7-0.7 5.1-2.3 9.8-1.5 0.4-3 0.7 0-1.5 0-3 1.3-4 2.3-8.2z"/>
	</g>
	<g>
		<path fill-rule="evenodd" class="s32" d="m145.9 60.4q1.3 0.8 3 0.7-0.2 1.1 0.7 1.5 0 4.2 0 8.3-0.8 0.4-1.1 1.5-0.4-0.4-0.8-0.8-0.2 4-1.1 7.5 0.1-9.4-0.7-18.7z"/>
	</g>
	<g>
		<path fill-rule="evenodd" class="s33" d="m76.9 62.6q-0.4 2.9 0.7 5.3 8.3 2.3 14.6 8.2 2.9 4.8 1.2 9.8-0.8-2.5-3-4.2-9-7.1-18-14.2 0.6-0.4 0.7-1.1 0-2.7 0-5.3 2.3-0.1 3.8 1.5z"/>
	</g>
	<g>
		<path fill-rule="evenodd" class="s34" d="m131.6 67.9q1.4 7.4 0 15-0.7 0.1-1.1 0.7-3.7-2.1-7.5-3.7-0.2-5.9-1.1-11.3-0.2-2.6-0.8-5.2-0.1-0.9 0.4-1.5 4.2 4.2 10.1 6z"/>
	</g>
	<g>
		<path fill-rule="evenodd" class="s35" d="m18.4 65.6q5.3 1.5 9 5.3-0.2 8.7 1.5 17.2-5.3-2.2-10.5-4.5-1.5-9.1 0-18z"/>
	</g>
	<g>
		<path fill-rule="evenodd" class="s36" d="m72.4 78.4q1.1 2.7 0.7 6-0.2 2.1-1.5 0.7 1.1-3.1 0.8-6.7z"/>
	</g>
	<g>
		<path fill-rule="evenodd" class="s37" d="m76.9 79.9q1.1-0.2 1.5 0.7-1.5 2.3 0 4.5-0.1 0.6-0.8 0.8-1.1-2.9-0.7-6z"/>
	</g>
	<g>
		<path fill-rule="evenodd" class="s38" d="m78.4 80.6q2.9 0.6 2.2 3.8-1 0.7-2.2 0.7-1.5-2.2 0-4.5z"/>
	</g>
	<g>
		<path fill-rule="evenodd" class="s39" d="m121.9 68.6q0.9 5.4 1.1 11.3 3.8 1.6 7.5 3.7 0.4-0.6 1.1-0.7-1.2 6.3-3.7 12-5.1-0.9-8.3-4.5 2.9-10.7 2.3-21.8z"/>
	</g>
	<g>
		<path fill-rule="evenodd" class="s40" d="m71.6 85.1q1.3 1.4 1.5-0.7 7.1 4.4 12.8 10.5-2.2 0.9-4.5 1.5-3.6-3.7-7.5-7.1-6.1-3.5-11.3-7.9 0.4-1.1 1.5-1.5 3.2 3.5 7.5 5.2z"/>
	</g>
	<g>
		<path fill-rule="evenodd" class="s41" d="m56.6 64.9q10.1 7.4 20.3 15-0.4 3.1 0.7 6 0.7-0.2 0.8-0.8 1.2 0 2.2-0.7 4.3 4.6 9.8 7.5-1.9 1.9-4.5 3-5.7-6.1-12.8-10.5 0.4-3.3-0.7-6-8.2-1.6-13.9-7.5-1.5-2.9-1.9-6z"/>
	</g>
	<g>
		<path fill-rule="evenodd" class="s42" d="m76.9 97.1q0 2.7 0 5.3-1.9 0-3.8 0 0.4-2.9-0.7-5.3-10.6-0.5-16.9-9-1-2.7 1.9-3 1.8-0.8 3.7-0.3 7.8 6.4 15.8 12.3z"/>
	</g>
	<g>
		<path fill-rule="evenodd" class="s43" d="m149.6 70.9q0 7.8 0 15.7-1.3 6.2-3.7 12-0.4-1.9-2.3-2.2 1.8-8.6 3-17.3 0.9-3.5 1.2-7.5 0.3 0.4 0.7 0.8 0.3-1.1 1.1-1.5z"/>
	</g>
	<g>
		<path fill-rule="evenodd" class="s44" d="m62.6 81.4q5.2 4.4 11.3 7.8 3.9 3.5 7.5 7.2-2.1 0.9-4.5 0.7-8-5.9-15.8-12.4-1.9-0.4-3.7 0.4 2.3-2.2 5.2-3.7z"/>
	</g>
	<g>
		<path fill-rule="evenodd" class="s45" d="m2.6 64.9q-2.9 55.2 47.3 77.6 42.2 13.2 75-16.1 1.2 0 2.2 0.7 1.3-1.2 3-1.5-17.8 19.1-43.5 24-12 0-24 0-51.5-11.8-63-63 0-10.5 0-21 1.5-0.3 3-0.7z"/>
	</g>
	<g>
		<path fill-rule="evenodd" class="s46" d="m143.6 96.4q1.9 0.3 2.3 2.2-0.3 3.4-2.3 6-1.9 0.7-3.7 0.8 1.4-4.8 3.7-9z"/>
	</g>
	<g>
		<path fill-rule="evenodd" class="s47" d="m119.6 90.4q3.2 3.6 8.3 4.5-1.5 5.9-5.3 10.5-3.3-1.7-6.7-3.4-0.9-0.8-0.8-1.9 2.3-4.9 4.5-9.7z"/>
	</g>
	<g>
		<path fill-rule="evenodd" class="s48" d="m18.4 83.6q5.2 2.3 10.5 4.5 5.5 16.1 19.5 25.9 5.7 3.3 11.6 6.4 3 12.7-8.6 6.4-27.3-13.3-33-43.2z"/>
	</g>
	<g>
		<path fill-rule="evenodd" class="s49" d="m72.4 97.1q1.1 2.4 0.7 5.3 1.9 0 3.8 0-2 1.1-4.5 0.7 0-3 0-6z"/>
	</g>
	<g>
		<path fill-rule="evenodd" class="s50" d="m115.1 100.1q-0.1 1.1 0.8 1.9 3.4 1.7 6.7 3.4-2.5 5.1-6.7 9-3.5-3.4-8.3-5.3 4.2-4.2 7.5-9z"/>
	</g>
	<g>
		<path fill-rule="evenodd" class="s51" d="m143.6 104.6q-2.7 8.1-8.2 14.3 0-2.3-2.3-2.3 3.7-5.4 6.8-11.2 1.8-0.1 3.7-0.8z"/>
	</g>
	<g>
		<path fill-rule="evenodd" class="s52" d="m107.6 109.1q4.8 1.9 8.3 5.3-3.5 4.2-8.3 6.7-4.4-3.1-9.7-4.5 4.8-3.7 9.7-7.5z"/>
	</g>
	<g>
		<path fill-rule="evenodd" class="s53" d="m133.1 116.6q2.3 0 2.3 2.3-2.2 3.7-5.3 6.7-1.7 0.3-3 1.5-1-0.7-2.2-0.7 4.5-4.6 8.2-9.8z"/>
	</g>
	<g>
		<path fill-rule="evenodd" class="s54" d="m97.9 116.6q5.3 1.4 9.7 4.5-7.6 6.2-17.2 7.9-2.6-4-0.8-8.6 3.9-2.6 8.3-3.8z"/>
	</g>
</svg>