<svg width="512" height="512" viewBox="0 0 512 512" fill="none" xmlns="http://www.w3.org/2000/svg">
<path d="M256 511C396.833 511 511 396.833 511 256C511 115.167 396.833 1 256 1C115.167 1 1 115.167 1 256C1 396.833 115.167 511 256 511Z" fill="white"/>
<path d="M256 493.05C386.919 493.05 493.05 386.919 493.05 256C493.05 125.081 386.919 18.95 256 18.95C125.081 18.95 18.95 125.081 18.95 256C18.95 386.919 125.081 493.05 256 493.05Z" fill="url(#paint0_linear_52_2)"/>
<path d="M378.38 336.35L345.38 317.35C344.923 317.09 344.406 316.952 343.88 316.95C343.606 316.952 343.334 316.989 343.07 317.06C342.685 317.168 342.326 317.352 342.014 317.601C341.701 317.85 341.442 318.159 341.25 318.51C338.414 323.707 334.888 328.497 330.77 332.75C325.219 338.492 318.854 343.388 311.88 347.28C305.146 351.014 297.923 353.788 290.42 355.52C283.367 357.189 276.148 358.054 268.9 358.1C256.128 358.217 243.52 355.228 232.16 349.39C221.248 343.747 211.575 335.978 203.71 326.54C199.869 321.908 196.455 316.938 193.51 311.69L189.63 304.8H273.41C274.206 304.8 274.969 304.484 275.531 303.921C276.094 303.359 276.41 302.596 276.41 301.8V275.7C276.41 274.904 276.094 274.141 275.531 273.579C274.969 273.016 274.206 272.7 273.41 272.7H180.31L179.85 268.58C179.355 264.134 179.104 259.664 179.1 255.19C179.1 251.44 179.3 247.51 179.7 243.49L180.12 239.32H273.41C274.206 239.32 274.969 239.004 275.531 238.441C276.094 237.879 276.41 237.116 276.41 236.32V210.22C276.41 209.424 276.094 208.661 275.531 208.099C274.969 207.536 274.206 207.22 273.41 207.22H188.74L192.33 200.43C194.869 195.612 197.799 191.01 201.09 186.67C208.538 176.934 217.974 168.896 228.77 163.09C239.91 157.01 253.12 153.92 268.04 153.92C275.124 153.95 282.185 154.742 289.1 156.28C296.335 157.886 303.328 160.434 309.9 163.86C322.21 170.41 332.448 180.267 339.46 192.32C339.669 192.676 339.949 192.985 340.283 193.227C340.617 193.47 340.997 193.641 341.4 193.73C341.61 193.778 341.825 193.801 342.04 193.8C342.651 193.801 343.247 193.617 343.75 193.27L374.4 172.16C375.026 171.729 375.465 171.076 375.629 170.334C375.792 169.591 375.667 168.814 375.28 168.16C366.2 152.89 353.22 140.1 336.7 130.16C318 118.91 295.45 113.16 269.7 113.16C247.85 113.16 228.13 117.28 211.08 125.4C194.8 132.966 180.172 143.668 168.033 156.895C155.895 170.121 146.484 185.612 140.34 202.48C140.24 202.73 140.16 202.98 140.08 203.23V203.3C140 203.56 139.91 203.82 139.81 204.08L138.71 207.16H74.27C73.4743 207.16 72.7113 207.476 72.1487 208.039C71.5861 208.601 71.27 209.364 71.27 210.16V236.26C71.27 237.056 71.5861 237.819 72.1487 238.381C72.7113 238.944 73.4743 239.26 74.27 239.26H131.65L131.32 244.19C131.09 247.74 130.98 250.7 130.98 253.49C130.98 258.14 131.22 262.87 131.68 267.55L132.18 272.64H74.27C73.4743 272.64 72.7113 272.956 72.1487 273.519C71.5861 274.081 71.27 274.844 71.27 275.64V301.74C71.27 302.536 71.5861 303.299 72.1487 303.861C72.7113 304.424 73.4743 304.74 74.27 304.74H140.43L141.6 307.66C148.153 324.268 157.539 339.612 169.34 353.01C181.463 366.683 196.076 377.926 212.4 386.14C228.85 394.5 247.3 398.74 267.22 398.74C278.999 398.682 290.729 397.215 302.16 394.37C313.822 391.549 325.086 387.283 335.69 381.67C345.931 376.244 355.356 369.404 363.69 361.35C370.041 355.229 375.384 348.141 379.52 340.35C379.884 339.665 379.968 338.866 379.756 338.12C379.543 337.375 379.05 336.74 378.38 336.35Z" fill="white"/>
<defs>
<linearGradient id="paint0_linear_52_2" x1="137.46" y1="50.68" x2="374.54" y2="461.32" gradientUnits="userSpaceOnUse">
<stop stop-color="#0095D7"/>
<stop offset="1" stop-color="#0072AA"/>
</linearGradient>
</defs>
</svg>
