<svg width="38" height="38" viewBox="0 0 38 38" fill="none" xmlns="http://www.w3.org/2000/svg">
<path d="M18.509 0.33427H18.5097C28.547 0.33427 36.6839 8.47114 36.6839 18.5085V18.5092C36.6839 28.5465 28.547 36.6834 18.5097 36.6834H18.509C8.47163 36.6834 0.334758 28.5465 0.334758 18.5092V18.5085C0.334758 8.47114 8.47163 0.33427 18.509 0.33427Z" fill="black" stroke="black" stroke-width="0.669516"/>
<path fill-rule="evenodd" clip-rule="evenodd" d="M15.54 3.27832C8.39538 4.6545 2.99854 10.9403 2.99854 18.4865C2.99854 26.0328 8.39538 32.3186 15.54 33.6948V32.2432C9.18634 30.8888 4.42092 25.2442 4.42092 18.4865C4.42092 11.7289 9.18634 6.08429 15.54 4.72989V3.27832ZM21.4601 4.73558V3.28346C28.5915 4.67009 33.975 10.9496 33.975 18.4865C33.975 26.0235 28.5915 32.303 21.4601 33.6896V32.2375C27.8004 30.8731 32.5526 25.2348 32.5526 18.4865C32.5526 11.7383 27.8004 6.10003 21.4601 4.73558Z" fill="white"/>
<path d="M20.6933 17.9687C21.8751 18.1939 22.7917 18.6283 23.4432 19.2718C24.0947 19.8992 24.4204 20.7035 24.4204 21.6849V23.2292C24.4204 24.4036 23.9962 25.3527 23.1477 26.0767C22.2993 26.7845 21.1857 27.1384 19.807 27.1384H19.3298V29.5998H17.6935V27.1384H17.1936C16.2845 27.1384 15.4815 26.9373 14.7846 26.5352C14.0877 26.1169 13.5423 25.5378 13.1483 24.7977C12.7696 24.0416 12.5802 23.1729 12.5802 22.1916H14.2165C14.2165 23.189 14.4892 24.0014 15.0346 24.6288C15.5952 25.2401 16.33 25.5458 17.239 25.5458H19.7616C20.6555 25.5458 21.3751 25.3367 21.9205 24.9184C22.466 24.484 22.7387 23.921 22.7387 23.2292V21.6849C22.7387 21.1379 22.5341 20.6714 22.1251 20.2853C21.7312 19.8992 21.1857 19.6498 20.4888 19.5372L16.3982 18.8133C15.2467 18.6042 14.3528 18.1698 13.7165 17.5102C13.0802 16.8507 12.762 16.0222 12.762 15.0248V13.7217C12.762 12.5473 13.1711 11.6143 13.9892 10.9225C14.8225 10.2147 15.9209 9.86076 17.2845 9.86076H17.6935V7.39941H19.3298V9.86076H19.8525C21.1403 9.86076 22.1781 10.279 22.9659 11.1156C23.7538 11.936 24.1477 13.0219 24.1477 14.3732H22.5114C22.5114 13.4884 22.269 12.7806 21.7842 12.2497C21.2994 11.7188 20.6555 11.4534 19.8525 11.4534H17.2845C16.4209 11.4534 15.7315 11.6625 15.2164 12.0808C14.7013 12.483 14.4437 13.0299 14.4437 13.7217V15.0248C14.4437 15.5878 14.6331 16.0624 15.0119 16.4485C15.4058 16.8346 15.9436 17.092 16.6254 17.2207L20.6933 17.9687Z" fill="white"/>
<g clip-path="url(#clip0_6091_5999)">
<circle cx="29" cy="29" r="7.78376" fill="black" stroke="#5B5555" stroke-width="0.432431"/>
<path d="M27.7662 21.0964C23.4084 21.7767 20.4162 25.876 21.0964 30.2338C21.7767 34.5916 25.876 37.5839 30.2338 36.9036C34.5916 36.2233 37.5839 32.124 36.9036 27.7662C36.2233 23.4084 32.124 20.4162 27.7662 21.0964ZM27.9275 22.1296C28.424 22.0521 28.9168 22.0296 29.399 22.0576C28.7676 22.8366 27.8159 23.6382 26.3834 24.238C25.0285 24.8057 23.6389 25.3888 22.5721 26.3517C23.4697 24.1827 25.4433 22.5174 27.9275 22.1296ZM22.1296 30.0725C22.0712 29.6985 22.0443 29.3264 22.0463 28.9594C22.1755 28.5969 22.3398 28.2665 22.5405 27.9658C23.4542 26.5987 25.0734 25.9205 26.7875 25.2026C28.74 24.385 29.8987 23.2183 30.5755 22.2279C30.9369 22.3128 31.2894 22.4255 31.6293 22.5651C31.5371 22.8557 31.3883 23.2282 31.1488 23.6434C30.6345 24.5349 29.5837 25.8106 27.4993 26.8239C26.1153 27.4967 24.3934 28.3343 23.3764 30.2155C23.0943 30.7373 22.8737 31.3205 22.7128 31.9716C22.4348 31.3837 22.2349 30.7472 22.1296 30.0725ZM23.5344 33.2959C23.9868 29.6953 25.9314 28.7488 27.9572 27.7637C29.8064 26.8643 30.9532 25.7699 31.6645 24.7773C31.3646 26.4391 30.5945 28.0214 29.3641 29.4983C28.1028 31.0117 26.8525 32.8568 27.146 35.0658C27.1758 35.2902 27.2213 35.5144 27.2821 35.7372C25.797 35.3562 24.4777 34.4912 23.5344 33.2959ZM30.1671 30.1677C32.3612 27.535 32.8385 24.9591 32.853 23.262C32.8532 23.2461 32.8529 23.2313 32.8531 23.2154C34.0237 23.9957 34.9563 25.126 35.483 26.483C35.4156 26.9153 35.2814 27.5236 35.0126 28.1916C34.3286 29.8912 33.1401 31.1625 31.4787 31.9701C30.3524 32.5179 29.1173 33.1922 28.149 34.3721C28.1644 32.8028 29.117 31.4275 30.1671 30.1677ZM30.073 35.8703C29.5244 35.956 28.9801 35.9743 28.4492 35.9323C28.4361 35.8994 28.4235 35.8665 28.4115 35.8334C29.1898 34.4567 30.3878 33.6633 31.9357 32.911C34.2468 31.7872 35.3892 30.0108 35.9462 28.6703C36.1154 32.1713 33.6126 35.3178 30.073 35.8703Z" fill="#F0F0F0"/>
</g>
<defs>
<clipPath id="clip0_6091_5999">
<rect width="16" height="16" fill="white" transform="translate(21 21)"/>
</clipPath>
</defs>
</svg>
