<svg xmlns="http://www.w3.org/2000/svg" width="256" height="256" fill="none" viewBox="0 0 256 256"><g clip-path="url(#a)"><path fill="#bdc5d1" d="M128 256c70.692 0 128-57.308 128-128S198.692 0 128 0 0 57.308 0 128s57.308 128 128 128"/><path fill="#fff" d="m72.901 100.269-28.66-14.593a94 94 0 0 0-5.67 13.732l30.598 9.905a61 61 0 0 1 3.732-9.044M97.23 74.551l15.886 27.345a31 31 0 0 1 7.368-3.062l-8.206-30.527c2.082-.55 4.211-1.029 6.364-1.364l-5.048-31.77a93 93 0 0 0-14.426 3.468l9.809 30.097a64.4 64.4 0 0 0-9.091 3.78L85.46 44.359a93.5 93.5 0 0 0-12.608 7.775l18.971 25.982c1.723-1.292 3.541-2.464 5.407-3.565m85.193 22.656-27.345 15.886a31 31 0 0 1 3.086 7.368l30.527-8.229a57 57 0 0 1 1.364 6.339l31.771-5.048a90.5 90.5 0 0 0-3.493-14.426l-30.072 9.833a64.5 64.5 0 0 0-3.78-9.091l28.158-14.45a93.5 93.5 0 0 0-7.775-12.608l-25.958 18.972a81 81 0 0 1 3.517 5.454m-11.146-52.991a94 94 0 0 0-13.732-5.67l-9.881 30.598a63 63 0 0 1 9.043 3.732zM159.838 74l-16.053 27.872a30.8 30.8 0 0 1 6.364 4.881l45.025-45.193a96 96 0 0 0-11.268-9.617l-18.565 25.623A56 56 0 0 0 159.838 74M73.999 97.112l27.847 16.076a31.6 31.6 0 0 1 4.881-6.387l-45.145-45.05a96 96 0 0 0-9.617 11.269l25.599 18.589a70 70 0 0 0-3.565 5.503m64.24-30.719 4.857-31.269A96 96 0 0 0 128.478 34h-.072v63.781h.072c2.68 0 5.359.335 7.919 1.03l8.254-31.078a58 58 0 0 0-6.412-1.34M98.81 120.581l-31.077-8.278a65 65 0 0 0-1.34 6.412l-31.269-4.881A97 97 0 0 0 34 128.5h63.781c0-2.704.36-5.359 1.03-7.919m85.287 36.149 28.661 14.594a94.4 94.4 0 0 0 5.67-13.733l-30.599-9.904a61 61 0 0 1-3.732 9.043m-24.352 25.694-15.862-27.345a31 31 0 0 1-7.368 3.063l8.206 30.527c-2.082.55-4.211 1.028-6.364 1.363l5.048 31.771a93 93 0 0 0 14.426-3.469l-9.809-30.096a64.5 64.5 0 0 0 9.091-3.78l14.426 28.159a93.5 93.5 0 0 0 12.608-7.776L165.2 178.86a51 51 0 0 1-5.454 3.564m-85.171-22.632 27.345-15.885a31 31 0 0 1-3.086-7.369l-30.527 8.23a58 58 0 0 1-1.364-6.34l-31.771 5.048a90.5 90.5 0 0 0 3.493 14.426l30.072-9.832a65.6 65.6 0 0 0 3.78 9.091l-28.158 14.45a93.5 93.5 0 0 0 7.775 12.608l25.957-18.972a81 81 0 0 1-3.516-5.455m11.148 52.992a94 94 0 0 0 13.732 5.67l9.881-30.599a63 63 0 0 1-9.044-3.732zm11.417-29.785 16.053-27.872a30.8 30.8 0 0 1-6.363-4.88l-45.025 45.192a95.6 95.6 0 0 0 11.268 9.617l18.565-25.622a70 70 0 0 0 5.502 3.565m85.838-23.111-27.847-16.077a31.6 31.6 0 0 1-4.881 6.388l45.169 45.049a96 96 0 0 0 9.617-11.268l-25.599-18.589c1.268-1.795 2.464-3.613 3.541-5.503m-62.396-1.698-8.254 31.077a65 65 0 0 0 6.412 1.34l-4.857 31.268A96 96 0 0 0 128.501 223h.072v-63.782h-.072c-2.68 0-5.359-.359-7.919-1.028m38.634-29.69c0 2.703-.335 5.359-1.028 7.919l31.077 8.277a65 65 0 0 0 1.34-6.411l31.268 4.88a97 97 0 0 0 1.125-14.665z"/></g><defs><clipPath id="a"><path fill="#fff" d="M0 0h256v256H0z"/></clipPath></defs></svg>