<svg width="41" height="40" viewBox="0 0 41 40" fill="none" xmlns="http://www.w3.org/2000/svg">
<g clip-path="url(#clip0_462_28)">
<mask id="mask0_462_28" style="mask-type:luminance" maskUnits="userSpaceOnUse" x="0" y="0" width="41" height="40">
<path d="M40.5 0H0.5V40H40.5V0Z" fill="white"/>
</mask>
<g mask="url(#mask0_462_28)">
<path d="M20.5 40C31.5457 40 40.5 31.0457 40.5 20C40.5 8.9543 31.5457 0 20.5 0C9.4543 0 0.5 8.9543 0.5 20C0.5 31.0457 9.4543 40 20.5 40Z" fill="#34C759"/>
<path d="M15.3234 39.3187C22.992 41.3735 31.5262 34.3901 34.385 23.7207C37.2438 13.0514 33.3448 2.73649 25.6762 0.681705C18.0076 -1.37308 9.47347 5.61038 6.61463 16.2797C3.7558 26.949 7.65486 37.2639 15.3234 39.3187Z" fill="black" fill-opacity="0.2"/>
<path fill-rule="evenodd" clip-rule="evenodd" d="M13.177 20.9132L10.968 29.138H22.1575C26.1497 29.138 29.1017 26.186 29.1017 22.4187C29.1017 20.9005 28.4832 20.0009 27.3024 19.3542L27.3868 19.0169C29.8327 18.2297 31.2384 16.2335 31.2384 13.6752C31.2384 11.2854 29.7203 9.45801 26.3184 9.45801H16.2535L14.0831 17.5394H8.93435L8.02832 20.9132H13.177ZM17.9932 20.9132L16.9845 24.6678H22.3262C23.7038 24.6678 24.7159 23.5433 24.7159 22.1657C24.7159 21.3222 24.1536 20.9005 23.1696 20.9005H20.6018V20.9132H17.9932ZM23.9006 17.5268H18.8963L19.8803 13.9282H24.8284C25.728 13.9282 26.2622 14.378 26.2622 15.1933C26.2622 16.5147 25.3344 17.5268 23.9006 17.5268Z" fill="white"/>
<mask id="mask1_462_28" style="mask-type:luminance" maskUnits="userSpaceOnUse" x="8" y="9" width="24" height="21">
<path fill-rule="evenodd" clip-rule="evenodd" d="M13.177 20.9132L10.968 29.138H22.1575C26.1497 29.138 29.1017 26.186 29.1017 22.4187C29.1017 20.9005 28.4832 20.0009 27.3024 19.3542L27.3868 19.0169C29.8327 18.2297 31.2384 16.2335 31.2384 13.6752C31.2384 11.2854 29.7203 9.45801 26.3184 9.45801H16.2535L14.0831 17.5394H8.93435L8.02832 20.9132H13.177ZM17.9932 20.9132L16.9845 24.6678H22.3262C23.7038 24.6678 24.7159 23.5433 24.7159 22.1657C24.7159 21.3222 24.1536 20.9005 23.1696 20.9005H20.6018V20.9132H17.9932ZM23.9006 17.5268H18.8963L19.8803 13.9282H24.8284C25.728 13.9282 26.2622 14.378 26.2622 15.1933C26.2622 16.5147 25.3344 17.5268 23.9006 17.5268Z" fill="white"/>
</mask>
<g mask="url(#mask1_462_28)">
<path d="M10.9683 29.138L10.6665 29.0569L10.5608 29.4505H10.9683V29.138ZM13.1773 20.9132L13.4791 20.9942L13.5848 20.6007H13.1773V20.9132ZM27.3027 19.3542L26.9996 19.2784L26.9411 19.5125L27.1526 19.6283L27.3027 19.3542ZM27.3871 19.0169L27.2913 18.7194L27.126 18.7726L27.0839 18.9411L27.3871 19.0169ZM16.2538 9.45801V9.14551H16.0142L15.952 9.37695L16.2538 9.45801ZM14.0834 17.5394V17.8519H14.323L14.3852 17.6205L14.0834 17.5394ZM8.93462 17.5394V17.2269H8.69497L8.63281 17.4584L8.93462 17.5394ZM8.02859 20.9132L7.72678 20.8321L7.62109 21.2257H8.02859V20.9132ZM17.9935 20.9132V20.6007H17.7539L17.6917 20.8321L17.9935 20.9132ZM16.9848 24.6678L16.683 24.5868L16.5773 24.9803H16.9848V24.6678ZM20.6021 20.9005V20.588H20.2896V20.9005H20.6021ZM20.6021 20.9132V21.2257H20.9146V20.9132H20.6021ZM18.8966 17.5268L18.5951 17.4444L18.4871 17.8393H18.8966V17.5268ZM19.8806 13.9282V13.6157H19.642L19.5791 13.8458L19.8806 13.9282ZM11.2701 29.2191L13.4791 20.9942L12.8755 20.8321L10.6665 29.0569L11.2701 29.2191ZM22.1578 28.8255H10.9683V29.4505H22.1578V28.8255ZM28.7895 22.4187C28.7895 26.0067 25.9843 28.8255 22.1578 28.8255V29.4505C26.3158 29.4505 29.4145 26.3653 29.4145 22.4187H28.7895ZM27.1526 19.6283C27.7095 19.9333 28.1121 20.2858 28.3784 20.7224C28.6442 21.1582 28.7895 21.7031 28.7895 22.4187H29.4145C29.4145 21.6161 29.2506 20.9521 28.912 20.3969C28.5738 19.8424 28.0768 19.4218 27.4528 19.0801L27.1526 19.6283ZM27.0839 18.9411L26.9996 19.2784L27.6059 19.43L27.6902 19.0927L27.0839 18.9411ZM30.9262 13.6752C30.9262 16.102 29.6042 17.975 27.2913 18.7194L27.4828 19.3143C30.0618 18.4843 31.5512 16.3651 31.5512 13.6752H30.9262ZM26.3187 9.77051C27.9653 9.77051 29.1097 10.2122 29.8405 10.8983C30.5695 11.5827 30.9262 12.5472 30.9262 13.6752H31.5512C31.5512 12.4133 31.1488 11.2693 30.2683 10.4426C29.3896 9.61758 28.074 9.14551 26.3187 9.14551V9.77051ZM16.2538 9.77051H26.3187V9.14551H16.2538V9.77051ZM14.3852 17.6205L16.5556 9.53906L15.952 9.37695L13.7816 17.4584L14.3852 17.6205ZM8.93462 17.8519H14.0834V17.2269H8.93462V17.8519ZM8.3304 20.9942L9.23642 17.6205L8.63281 17.4584L7.72678 20.8321L8.3304 20.9942ZM13.1773 20.6007H8.02859V21.2257H13.1773V20.6007ZM17.6917 20.8321L16.683 24.5868L17.2866 24.7489L18.2953 20.9942L17.6917 20.8321ZM16.9848 24.9803H22.3265V24.3553H16.9848V24.9803ZM22.3265 24.9803C23.8952 24.9803 25.0287 23.6967 25.0287 22.1657H24.4037C24.4037 23.3898 23.513 24.3553 22.3265 24.3553V24.9803ZM25.0287 22.1657C25.0287 21.669 24.8593 21.2544 24.5073 20.9728C24.1671 20.7006 23.6999 20.588 23.1699 20.588V21.213C23.624 21.213 23.9299 21.3113 24.1169 21.4608C24.292 21.6009 24.4037 21.8189 24.4037 22.1657H25.0287ZM23.1699 20.588H20.6021V21.213H23.1699V20.588ZM20.2896 20.9005V20.9132H20.9146V20.9005H20.2896ZM20.6021 20.6007H17.9935V21.2257H20.6021V20.6007ZM18.8966 17.8393H23.9009V17.2143H18.8966V17.8393ZM19.5791 13.8458L18.5951 17.4444L19.198 17.6092L20.182 14.0106L19.5791 13.8458ZM24.8287 13.6157H19.8806V14.2407H24.8287V13.6157ZM26.575 15.1933C26.575 14.7138 26.4152 14.3043 26.0883 14.0194C25.7677 13.7401 25.3267 13.6157 24.8287 13.6157V14.2407C25.2303 14.2407 25.5062 14.3412 25.6777 14.4906C25.8427 14.6345 25.95 14.8575 25.95 15.1933H26.575ZM23.9009 17.8393C24.6942 17.8393 25.3673 17.5577 25.8422 17.0747C26.3161 16.5927 26.575 15.9282 26.575 15.1933H25.95C25.95 15.7798 25.745 16.282 25.3966 16.6365C25.0492 16.9898 24.5415 17.2143 23.9009 17.2143V17.8393Z" fill="white"/>
</g>
</g>
</g>
<defs>
<clipPath id="clip0_462_28">
<rect width="41" height="40" fill="white"/>
</clipPath>
</defs>
</svg>
