<svg width="32px" height="32px" viewBox="0 0 19 21" fill="none" xmlns="http://www.w3.org/2000/svg">
    <path d="M4.56445 8.34435L9.38285 6.10926V0L4.56445 8.34435Z" fill="#FF596E"></path>
    <path d="M9.38184 6.11011V10.9779L14.2002 8.3452L9.38184 6.11011Z" fill="#FF596E"></path>
    <path d="M9.38285 6.11011V10.9779L4.56445 8.3452L9.38285 6.11011Z" fill="#800010"></path>
    <path d="M14.2002 8.34435L9.38184 6.10926V0L14.2002 8.34435Z" fill="#800010"></path>
    <path d="M9.38075 12.8563V18.0445L4.46973 10.1726L9.38075 12.8563Z" fill="#FF596E"></path>
    <path d="M9.38184 12.8563V18.0445L14.2929 10.1726L9.38184 12.8563Z" fill="#800010"></path>
    <path d="M15.1045 11.3614L16.217 14.4836L18.6536 10.4133L15.1045 11.3614Z" fill="#800010"></path>
    <path d="M16.2148 14.4836L18.6514 13.7617V10.4133L16.2148 14.4836Z" fill="#FF596E"></path>
    <path d="M18.6543 13.7615L15.1052 19.6916L12.4092 20.8458L16.2177 14.4833L18.6543 13.7615Z" fill="#800010"></path>
    <path d="M0.111328 13.7615L3.66047 19.6916L6.35648 20.8458L2.54793 14.4833L0.111328 13.7615Z" fill="#FF596E"></path>
    <path d="M9.38402 20.847L3.66235 11.3623L2.5498 14.4845L6.35835 20.847H9.38402Z" fill="#800010"></path>
    <path d="M3.66047 11.3614L2.54793 14.4836L0.111328 10.4133L3.66047 11.3614Z" fill="#FF596E"></path>
    <path d="M2.54793 14.4836L0.111328 13.7617V10.4133L2.54793 14.4836Z" fill="#800010"></path>
    <path d="M9.38184 20.847L15.1035 11.3623L16.2161 14.4845L12.4075 20.847H9.38184Z" fill="#FF596E"></path>
</svg>