<svg xmlns="http://www.w3.org/2000/svg" width="32" height="32" fill="none" viewBox="0 0 19 21"><path fill="#ff596e" d="M4.564 8.344 9.383 6.11V0z"/><path fill="#ff596e" d="M9.382 6.11v4.868L14.2 8.345z"/><path fill="#800010" d="M9.383 6.11v4.868L4.564 8.345z"/><path fill="#800010" d="M14.2 8.344 9.382 6.11V0z"/><path fill="#ff596e" d="M9.38 12.856v5.188l-4.91-7.871z"/><path fill="#800010" d="M9.382 12.856v5.188l4.91-7.871zm5.723-1.495 1.112 3.123 2.437-4.07z"/><path fill="#ff596e" d="m16.215 14.484 2.436-.722v-3.349z"/><path fill="#800010" d="m18.654 13.762-3.549 5.93-2.696 1.154 3.809-6.363z"/><path fill="#ff596e" d="m.111 13.762 3.55 5.93 2.695 1.154-3.808-6.363z"/><path fill="#800010" d="m9.384 20.847-5.722-9.485-1.112 3.123 3.808 6.362z"/><path fill="#ff596e" d="m3.66 11.361-1.112 3.123-2.437-4.07z"/><path fill="#800010" d="M2.548 14.484.11 13.762v-3.349z"/><path fill="#ff596e" d="m9.382 20.847 5.722-9.485 1.112 3.123-3.809 6.362z"/></svg>