<svg width="40" height="40" viewBox="0 0 40 40" fill="none" xmlns="http://www.w3.org/2000/svg">
<g clip-path="url(#clip0_4372_395)">
<path d="M20 40C31.0457 40 40 31.0457 40 20C40 8.95431 31.0457 0 20 0C8.95431 0 0 8.95431 0 20C0 31.0457 8.95431 40 20 40Z" fill="white"/>
<path d="M39.75 20C39.75 30.9076 30.9076 39.75 20 39.75C9.09238 39.75 0.25 30.9076 0.25 20C0.25 9.09238 9.09238 0.25 20 0.25C30.9076 0.25 39.75 9.09238 39.75 20Z" stroke="black" stroke-opacity="0.1" stroke-width="0.5"/>
<mask id="mask0_4372_395" style="mask-type:luminance" maskUnits="userSpaceOnUse" x="8" y="5" width="24" height="29">
<path d="M31.4401 5.36011H8.56006V33.0401H31.4401V5.36011Z" fill="white"/>
</mask>
<g mask="url(#mask0_4372_395)">
<path d="M20 21.6001L31.44 27.2001L20 33.0401V21.6001Z" fill="url(#paint0_linear_4372_395)"/>
<path d="M26.72 18.24L31.44 27.2L20 21.6L26.72 18.24Z" fill="url(#paint1_linear_4372_395)"/>
<path d="M20 21.6001V5.36011L13.28 18.2401L20 21.6001Z" fill="url(#paint2_linear_4372_395)"/>
<path d="M20 21.6001V5.36011L26.72 18.2401L20 21.6001Z" fill="url(#paint3_linear_4372_395)"/>
<path d="M20.0001 33.0401L8.56006 27.2001L20.0001 21.6001V33.0401Z" fill="url(#paint4_linear_4372_395)"/>
<path d="M13.2801 18.24L20.0001 21.6L8.56006 27.2L13.2801 18.24Z" fill="url(#paint5_linear_4372_395)"/>
</g>
</g>
<defs>
<linearGradient id="paint0_linear_4372_395" x1="23.2547" y1="28.6351" x2="25.4457" y2="33.6055" gradientUnits="userSpaceOnUse">
<stop stop-color="#5577EE"/>
<stop offset="1" stop-color="#84A6FF"/>
</linearGradient>
<linearGradient id="paint1_linear_4372_395" x1="24.9477" y1="24.2143" x2="33.8799" y2="14.3729" gradientUnits="userSpaceOnUse">
<stop stop-color="#33B6FF"/>
<stop offset="1" stop-color="#6562FD"/>
</linearGradient>
<linearGradient id="paint2_linear_4372_395" x1="21.5112" y1="13.4743" x2="15.6154" y2="13.4743" gradientUnits="userSpaceOnUse">
<stop stop-color="#695CFB"/>
<stop offset="1" stop-color="#479AFD"/>
</linearGradient>
<linearGradient id="paint3_linear_4372_395" x1="21.9118" y1="15.3468" x2="26.1169" y2="19.2943" gradientUnits="userSpaceOnUse">
<stop stop-color="#5577EE"/>
<stop offset="1" stop-color="#84A6FF"/>
</linearGradient>
<linearGradient id="paint4_linear_4372_395" x1="11.037" y1="23.361" x2="22.7257" y2="29.2515" gradientUnits="userSpaceOnUse">
<stop stop-color="#45C7FF"/>
<stop offset="1" stop-color="#0E2450"/>
</linearGradient>
<linearGradient id="paint5_linear_4372_395" x1="14.3376" y1="23.7655" x2="15.595" y2="19.9867" gradientUnits="userSpaceOnUse">
<stop stop-color="#4AB0EA"/>
<stop offset="1" stop-color="#6D7F9B"/>
</linearGradient>
<clipPath id="clip0_4372_395">
<rect width="40" height="40" fill="white"/>
</clipPath>
</defs>
</svg>
