<svg width="48" height="48" viewBox="0 0 48 48" fill="none" xmlns="http://www.w3.org/2000/svg">
<rect x="4" y="4" width="40" height="40" rx="20" fill="#FF9D7A"/>
<g filter="url(#filter0_d_2617_1808)">
<path fill-rule="evenodd" clip-rule="evenodd" d="M15.0155 24.2529L24.0001 10L33 24.2775L24.0001 20.352L23.9566 20.3709L24.0001 20.3521L33 24.2776L24.0001 29.3222L15.0179 24.2697L15 24.2775L15.0083 24.2643L15 24.2596L15.0155 24.2529ZM23.9994 30.9787L15 25.9146L23.9994 38V30.9787ZM32.9996 26.0061L23.9998 30.9786V38L32.9996 26.0061Z" fill="white"/>
</g>
<g filter="url(#filter1_d_2617_1808)">
<path fill-rule="evenodd" clip-rule="evenodd" d="M24 4C12.9543 4 4 12.9543 4 24C4 35.0457 12.9543 44 24 44C35.0457 44 44 35.0457 44 24C44 12.9543 35.0457 4 24 4ZM24 6C14.0589 6 6 14.0589 6 24C6 33.9411 14.0589 42 24 42C33.9411 42 42 33.9411 42 24C42 14.0589 33.9411 6 24 6Z" fill="#FFD48A"/>
</g>
<defs>
<filter id="filter0_d_2617_1808" x="11" y="6" width="26" height="36" filterUnits="userSpaceOnUse" color-interpolation-filters="sRGB">
<feFlood flood-opacity="0" result="BackgroundImageFix"/>
<feColorMatrix in="SourceAlpha" type="matrix" values="0 0 0 0 0 0 0 0 0 0 0 0 0 0 0 0 0 0 127 0" result="hardAlpha"/>
<feOffset/>
<feGaussianBlur stdDeviation="2"/>
<feComposite in2="hardAlpha" operator="out"/>
<feColorMatrix type="matrix" values="0 0 0 0 1 0 0 0 0 0.326923 0 0 0 0 0.3 0 0 0 1 0"/>
<feBlend mode="normal" in2="BackgroundImageFix" result="effect1_dropShadow_2617_1808"/>
<feBlend mode="normal" in="SourceGraphic" in2="effect1_dropShadow_2617_1808" result="shape"/>
</filter>
<filter id="filter1_d_2617_1808" x="0" y="0" width="48" height="48" filterUnits="userSpaceOnUse" color-interpolation-filters="sRGB">
<feFlood flood-opacity="0" result="BackgroundImageFix"/>
<feColorMatrix in="SourceAlpha" type="matrix" values="0 0 0 0 0 0 0 0 0 0 0 0 0 0 0 0 0 0 127 0" result="hardAlpha"/>
<feOffset/>
<feGaussianBlur stdDeviation="2"/>
<feComposite in2="hardAlpha" operator="out"/>
<feColorMatrix type="matrix" values="0 0 0 0 1 0 0 0 0 0.326923 0 0 0 0 0.3 0 0 0 1 0"/>
<feBlend mode="normal" in2="BackgroundImageFix" result="effect1_dropShadow_2617_1808"/>
<feBlend mode="normal" in="SourceGraphic" in2="effect1_dropShadow_2617_1808" result="shape"/>
</filter>
</defs>
</svg>
