<svg xmlns="http://www.w3.org/2000/svg" width="80" height="80" fill="none" viewBox="0 0 80 80"><rect width="77.091" height="77.091" x="1.455" y="1.455" fill="#180d68" rx="38.545"/><rect width="77.091" height="77.091" x="1.455" y="1.455" stroke="url(#a)" stroke-width="2.909" rx="38.545"/><mask id="b" width="34" height="54" x="23" y="13" maskUnits="userSpaceOnUse" style="mask-type:alpha"><path fill="#fff" fill-rule="evenodd" d="M38.836 46.182H25.754L40.034 66.2 56.84 42.545H41.454v3.637zm2.618-9.455h12.409l-13.83-22.86-16.092 26.496h14.604v-3.636z" clip-rule="evenodd"/></mask><g mask="url(#b)"><path fill="#ffbc01" d="m40.037 13.8-.503 1.175v25.092h.503L58.5 37.5z"/><path fill="#ffe8a8" d="m40.033 13.667-16.166 26.79L40.033 50z"/><path fill="#ffbc01" d="M39.996 37.636v28.63L56.9 42.4l-3.99-7.127z"/><path fill="#ffe8a8" d="M40.033 66.266V43.545H23.867z"/></g><defs><linearGradient id="a" x1="40" x2="40" y1="0" y2="80" gradientUnits="userSpaceOnUse"><stop stop-color="#ffb901"/><stop offset="1" stop-color="#f9cb53"/></linearGradient></defs></svg>