<svg width="1848" height="1848" viewBox="0 0 1848 1848" fill="none" xmlns="http://www.w3.org/2000/svg">
<rect width="1848" height="1848" rx="924" fill="white"/>
<path d="M544.272 1113.31C547.582 1120.14 551.148 1126.84 554.961 1133.39C560.456 1142.99 563.153 1149.08 562.354 1150.38C561.755 1151.58 527.988 1187.64 487.327 1230.7C446.667 1273.76 413.4 1309.12 413 1310.02C453.868 1351.15 495.4 1391.62 537.578 1431.4L541.874 1435L606.311 1366.87L680.039 1288.74L689.43 1279.05L698.321 1284.75C710.622 1292.69 723.364 1299.93 736.484 1306.43C744.576 1263.97 759.162 1222.51 776.844 1182.25L770.65 1179.25C717.003 1151.48 684.035 1093.33 664.454 1031.79C649.722 1037.54 635.46 1044.42 621.796 1052.37C593.324 1071.66 571.645 1094.33 544.272 1113.31ZM776.644 613.803C768.852 602.014 760.36 590.725 751.969 579.336C733.366 574.743 716.858 564.007 705.114 548.866L695.124 555.06L683.735 543.771C663.278 523.865 642.731 504.051 622.096 484.329C594.523 457.755 566.35 430.682 559.657 423.988L547.469 412L486.528 476.737C453.061 512.302 425.488 542.073 425.188 542.672C424.888 543.272 455.059 573.342 492.123 609.007L563.753 678.24L568.048 682.236L560.356 695.023C557.559 699.685 554.895 704.414 552.364 709.209C591.326 734.884 631.287 758.861 672.047 782.838C698.421 733.286 748.372 690.528 805.117 662.855C798.783 653.387 792.288 644.028 785.636 634.782C780.641 627.789 780.641 620.796 776.644 613.803ZM1292.34 697.521L1287.05 688.23L1358.68 612.304C1398.04 570.745 1430.01 536.079 1429.71 535.379C1428.81 532.782 1303.23 412.699 1301.63 412.699C1300.63 412.699 1268.86 445.267 1231.4 485.129C1193.74 524.89 1162.47 557.758 1161.77 558.057C1161.07 558.357 1157.77 556.559 1154.18 554.061C1147.08 549.266 1111.42 565.05 1088.24 570.745C1075.25 599.716 1063.96 629.388 1052.47 658.759C1064.97 665.259 1076.99 672.637 1088.44 680.837C1107.02 694.124 1151.28 728.99 1164.37 747.772C1167.56 752.367 1170.56 757.163 1173.46 762.058C1215.12 744.475 1257.67 728.491 1299.33 710.308C1296.84 705.513 1294.54 701.217 1292.44 697.621L1292.34 697.521ZM1300.43 1171.36L1283.45 1154.97L1291.14 1141.99C1294.14 1136.99 1297.04 1131.9 1299.83 1126.7C1264.27 1095.53 1230.9 1064.56 1192.74 1034.99C1178.95 1076.45 1157.77 1113.31 1129.3 1140.29C1114.41 1154.27 1096.13 1166.26 1075.45 1175.95L1077.35 1185.24C1085.34 1223.21 1107.32 1252.18 1123.31 1286.15C1125.31 1290.34 1126.98 1294.68 1128.3 1299.13C1133.5 1296.27 1138.59 1293.34 1143.59 1290.34L1156.57 1282.35L1170.26 1296.14C1217.47 1342.11 1264.92 1387.83 1312.62 1433.3C1313.92 1433.7 1436.2 1304.23 1436 1302.73C1435.9 1301.93 1351.78 1220.41 1300.43 1171.46V1171.36Z" fill="black"/>
<path d="M924.999 1361.27C824.11 1361.23 726.337 1326.31 648.248 1262.43C570.158 1198.55 516.555 1109.63 496.52 1010.75C476.486 911.873 491.251 809.107 538.316 719.867C585.381 630.628 661.85 560.404 754.766 521.093C861.623 475.945 982.039 475.094 1089.52 518.729C1197.01 562.363 1282.76 646.909 1327.91 753.766C1373.05 860.623 1373.9 981.039 1330.27 1088.52C1286.64 1196.01 1202.09 1281.76 1095.23 1326.91C1041.38 1349.7 983.478 1361.39 924.999 1361.27ZM924.999 657.96C778.343 657.96 658.959 777.343 658.959 924C658.959 1070.66 778.343 1190.04 924.999 1190.04C1071.66 1190.04 1191.04 1070.66 1191.04 924C1191.04 777.343 1071.66 657.96 924.999 657.96Z" fill="black"/>
</svg>
