<svg width="150" height="150" viewBox="0 0 150 150" fill="none" xmlns="http://www.w3.org/2000/svg">
<path d="M150 74.9924C150 94.8857 142.099 113.964 128.035 128.031C113.971 142.097 94.8968 150 75.0076 150C65.1582 150.002 55.4048 148.063 46.3045 144.295C37.2043 140.526 28.9355 135.001 21.9702 128.036C15.0049 121.071 9.4796 112.801 5.70992 103.7C1.94025 94.5988 5.81415e-07 84.8438 7.83463e-07 74.9924C-0.00195215 61.477 3.64719 48.2123 10.5616 36.6003C17.476 24.9884 27.3988 15.4608 39.281 9.02473C40.8 8.20431 42.319 7.42948 43.9291 6.71542C53.6865 2.27142 64.2862 -0.0189358 75.0076 0.000117912C93.0705 3.89291e-05 110.527 6.52083 124.167 18.3639C137.808 30.207 146.717 46.5765 149.256 64.4637C149.499 66.1653 149.681 67.867 149.818 69.599C149.954 71.3309 150 73.1845 150 74.9924Z" fill="#DCC5F7"/>
<path d="M59.376 31.8813V60.906H28.125V31.8813H59.376ZM121.875 89.9278H90.624V118.952H121.875V89.9278ZM121.875 31.8813H90.624L59.376 60.906H121.875V31.8813ZM28.125 89.9278V118.952H59.376V60.906L28.125 89.9278Z" fill="#6800D1"/>
<path d="M121.875 90.0181H90V120.024H121.875V90.0181Z" fill="#A162E8"/>
</svg>
