<?xml version="1.0" encoding="utf-8"?>
<!-- Generator: Adobe Illustrator 24.0.0, SVG Export Plug-In . SVG Version: 6.00 Build 0)  -->
<svg version="1.1" id="Layer_1" xmlns="http://www.w3.org/2000/svg" xmlns:xlink="http://www.w3.org/1999/xlink" x="0px" y="0px"
	 viewBox="0 0 392 392" style="enable-background:new 0 0 392 392;" xml:space="preserve">
<style type="text/css">
	.st0{fill:#00A64F;}
	.st1{fill:url(#SVGID_1_);}
	.st2{fill:url(#SVGID_2_);}
	.st3{fill:url(#SVGID_3_);}
	.st4{fill:#FFFFFF;}
</style>
<circle class="st0" cx="196" cy="196" r="196"/>
<radialGradient id="SVGID_1_" cx="17.1386" cy="-121.2962" r="313.5818" gradientTransform="matrix(1 0 0 -1 0 183.4)" gradientUnits="userSpaceOnUse">
	<stop  offset="9.000000e-02" style="stop-color:#00522C"/>
	<stop  offset="1" style="stop-color:#00522C;stop-opacity:0"/>
</radialGradient>
<circle class="st1" cx="196" cy="196" r="196"/>
<radialGradient id="SVGID_2_" cx="-1230.1526" cy="332.373" r="313.5818" gradientTransform="matrix(-0.125 -0.9922 -0.9922 0.125 502.217 -902.2126)" gradientUnits="userSpaceOnUse">
	<stop  offset="9.000000e-02" style="stop-color:#00A64F"/>
	<stop  offset="1" style="stop-color:#00A64F;stop-opacity:0"/>
</radialGradient>
<circle class="st2" cx="196" cy="196" r="196"/>
<radialGradient id="SVGID_3_" cx="377.7431" cy="114.6713" r="260.3616" fx="364.0883" fy="117.8581" gradientTransform="matrix(1 0 0 -1 0 183.4)" gradientUnits="userSpaceOnUse">
	<stop  offset="9.836333e-02" style="stop-color:#8AD137"/>
	<stop  offset="1" style="stop-color:#8AD137;stop-opacity:0"/>
</radialGradient>
<circle class="st3" cx="196" cy="196" r="196"/>
<path class="st4" d="M231.4,180.8h-16.7v-48.9h72.6v-30h-72.6V55h-37.4v46.9l0,0v0.2h-15.8c-34.1,0-62.6,17.2-62.6,54.9
	c0,32.9,25,53.6,61.7,53.6h16.7v48.9h-72.6v30h72.6v46.9h37.4v-47.1h15.8c34.2,0,62.6-17.2,62.6-54.9
	C293.1,201.5,268.1,180.8,231.4,180.8z M177.3,210.6v-29.8h-11.9c-15.9,0-28.8-6.7-28.8-24.5c0-17.6,12.3-24.3,29.6-24.3h11.1v48.9
	h37.4v29.8L177.3,210.6L177.3,210.6z M225.8,259.5h-11.1v-48.9h11.9c15.9,0,28.8,6.7,28.8,24.5C255.4,252.8,243.1,259.5,225.8,259.5
	z"/>
</svg>
