<svg width="40" height="40" viewBox="0 0 40 40" fill="none" xmlns="http://www.w3.org/2000/svg">
<path d="M40 20C40 8.9543 31.0457 0 20 0C8.9543 0 0 8.9543 0 20C0 31.0457 8.9543 40 20 40C31.0457 40 40 31.0457 40 20Z" fill="url(#paint0_linear_4351_270)"/>
<path fill-rule="evenodd" clip-rule="evenodd" d="M29.3042 28.9453C29.3067 28.9618 29.308 28.9787 29.308 28.9957C29.3084 29.1273 29.2408 29.2497 29.1287 29.3188L20.1486 34.8561C20.0272 34.9308 19.8745 34.9313 19.7535 34.8567L10.8459 29.3884C10.7338 29.3193 10.6656 29.1973 10.6661 29.0657C10.6661 29.0544 10.6665 29.0427 10.6673 29.0314C10.6661 29.0189 10.6661 29.0075 10.6661 28.9953L10.6656 22.1633C10.6656 22.1545 10.6661 22.1468 10.6665 22.1389C10.6603 22.0399 10.6927 21.9395 10.7628 21.8618C10.8823 21.7294 11.078 21.6989 11.2317 21.7884L19.9847 26.8684L28.657 21.8375C28.671 21.8288 28.686 21.8219 28.7009 21.8154C28.7644 21.7663 28.8439 21.7372 28.9307 21.7372C29.1385 21.7372 29.3076 21.9062 29.3076 22.1142L29.3081 28.8924C29.3081 28.9107 29.3067 28.928 29.3042 28.9453ZM11.4197 28.399L14.0071 26.8357L11.4193 23.2742L11.4197 28.399ZM14.4517 27.4482C13.734 27.8816 11.7677 29.0695 11.7677 29.0695L18.7389 33.3495L14.4517 27.4482ZM21.2833 33.2708L28.2061 29.0018L25.5312 27.3935L21.2833 33.2708ZM25.9743 26.7801L28.554 28.3312L28.5537 23.2112L25.9743 26.7801ZM19.7954 27.6301L12.3954 23.335L19.984 33.7812L27.5024 23.3785L20.1736 27.6301C20.0569 27.6978 19.9121 27.6978 19.7954 27.6301ZM11.0296 20.3295C10.8273 20.322 10.6652 20.1566 10.6652 19.9525L10.6644 11.0721C10.6644 11.0499 10.6669 11.0282 10.6707 11.0073C10.6669 10.9869 10.6644 10.9661 10.6644 10.9448C10.664 10.8132 10.7322 10.6907 10.8442 10.6221L19.8248 5.11433C19.9453 5.04008 20.0975 5.04008 20.218 5.11391L29.1257 10.5522C29.2382 10.6208 29.3064 10.7433 29.3064 10.8749C29.3064 10.8811 29.3059 10.8861 29.3059 10.8914C29.3059 10.8976 29.3064 10.9026 29.3064 10.9088L29.3072 19.906C29.3072 20.065 29.2082 20.2014 29.0689 20.2565L20.1659 25.154C20.0529 25.2161 19.9156 25.2161 19.8026 25.154L11.0296 20.3295ZM11.4184 11.6098L11.4189 18.7555L14.6215 13.5356L11.4184 11.6098ZM28.5527 11.542L25.3199 13.4952L28.5532 18.7646L28.5527 11.542ZM24.9257 12.8525C25.7546 12.3516 28.2034 10.8723 28.2034 10.8723L21.0192 6.48593L24.9257 12.8525ZM18.896 6.56803L11.7677 10.94L15.0157 12.8932L18.896 6.56803ZM11.6549 19.813L19.9842 24.3935L28.3119 19.8126L19.9828 6.23836L11.6549 19.813Z" fill="#11026F"/>
<path d="M38.4256 20C38.4256 30.1297 30.1777 38.3443 20 38.3443C9.82225 38.3443 1.57434 30.1297 1.57434 20C1.57434 9.87029 9.82225 1.65576 20 1.65576C30.1777 1.65576 38.4256 9.87029 38.4256 20Z" stroke="#11026F" stroke-width="0.75"/>
<defs>
<linearGradient id="paint0_linear_4351_270" x1="2.77151" y1="26.279" x2="37.4157" y2="13.6805" gradientUnits="userSpaceOnUse">
<stop stop-color="#29BCFA"/>
<stop offset="0.43" stop-color="#6464E4"/>
<stop offset="1" stop-color="#B45AFA"/>
</linearGradient>
</defs>
</svg>
