<?xml version="1.0" standalone="no"?>
<!DOCTYPE svg PUBLIC "-//W3C//DTD SVG 20010904//EN"
 "http://www.w3.org/TR/2001/REC-SVG-20010904/DTD/svg10.dtd">
<svg version="1.0" xmlns="http://www.w3.org/2000/svg"
 width="64.000000pt" height="64.000000pt" viewBox="0 0 64.000000 64.000000"
 preserveAspectRatio="xMidYMid meet">

<g transform="translate(0.000000,64.000000) scale(0.100000,-0.100000)"
fill="#000000" stroke="none">
<path d="M162 477 c-57 -58 -60 -69 -35 -122 16 -33 16 -37 0 -70 -25 -53 -22
-66 36 -123 57 -57 67 -59 121 -37 32 14 40 14 72 0 55 -23 65 -19 122 38 57
58 60 69 35 122 -16 33 -16 37 0 70 25 53 22 66 -36 123 -58 57 -69 60 -122
35 -33 -16 -37 -16 -70 0 -53 25 -66 22 -123 -36z m245 -70 c40 -40 73 -81 73
-91 0 -24 -133 -156 -157 -156 -21 0 -163 140 -163 161 0 17 143 159 160 159
7 0 47 -33 87 -73z"/>
<path d="M275 365 c-14 -13 -25 -33 -25 -43 0 -32 38 -72 69 -72 33 0 71 37
71 69 0 28 -42 71 -70 71 -11 0 -32 -11 -45 -25z"/>
</g>
</svg>
