<svg width="24" height="24" viewBox="0 0 24 24" fill="none" xmlns="http://www.w3.org/2000/svg">
<path d="M11.9995 5.33301C12.7357 5.33301 13.3333 5.92984 13.3335 6.66602C13.3335 7.4024 12.7359 8 11.9995 8C11.2633 7.99977 10.6665 7.40225 10.6665 6.66602C10.6667 5.92998 11.2635 5.33324 11.9995 5.33301Z" stroke="#516070" stroke-width="0.888889"/>
<path d="M11.9995 10.666C12.7357 10.666 13.3333 11.2628 13.3335 11.999C13.3335 12.7354 12.7359 13.333 11.9995 13.333C11.2633 13.3328 10.6665 12.7353 10.6665 11.999C10.6667 11.263 11.2635 10.6663 11.9995 10.666Z" stroke="#516070" stroke-width="0.888889"/>
<path d="M11.9995 16C12.7357 16 13.3333 16.5968 13.3335 17.333C13.3335 18.0694 12.7359 18.667 11.9995 18.667C11.2633 18.6668 10.6665 18.0692 10.6665 17.333C10.6667 16.597 11.2635 16.0002 11.9995 16Z" stroke="#516070" stroke-width="0.888889"/>
</svg>
