<svg width="11" height="10" viewBox="0 0 11 10" fill="none" xmlns="http://www.w3.org/2000/svg">
<g clip-path="url(#clip0_38215_15555)">
<path fill-rule="evenodd" clip-rule="evenodd" d="M6.97665 0C6.60323 0 6.30051 0.302716 6.30051 0.676135C6.30051 1.04955 6.60323 1.35227 6.97665 1.35227H8.04762L7.23509 1.92738L3.80648 5.35841C3.54231 5.62277 3.54238 6.0512 3.80665 6.31546C4.07104 6.57986 4.49973 6.57978 4.76404 6.31529L8.18644 2.89047L8.76641 2.07985V3.14203C8.76641 3.51545 9.06912 3.81816 9.44254 3.81816C9.81596 3.81816 10.1187 3.51545 10.1187 3.14203V0.676135C10.1187 0.301357 9.81732 0 9.44254 0H6.97665ZM7.66537 9.66667C8.40175 9.66667 8.9987 9.06971 8.9987 8.33333V5.77778C8.9987 5.40959 8.70022 5.11111 8.33203 5.11111C7.96384 5.11111 7.66537 5.40959 7.66537 5.77778V7.83333C7.66537 8.10948 7.44151 8.33333 7.16537 8.33333H2.16537C1.88922 8.33333 1.66537 8.10948 1.66537 7.83333V2.83333C1.66537 2.55719 1.88923 2.33333 2.16537 2.33333H4.22092C4.58911 2.33333 4.88759 2.03486 4.88759 1.66667C4.88759 1.29848 4.58911 1 4.22092 1H1.66537C0.928985 1 0.332031 1.59695 0.332031 2.33333V8.33333C0.332031 9.06971 0.928984 9.66667 1.66537 9.66667H7.66537Z" fill="currentColor"/>
</g>
<defs>
<clipPath id="clip0_38215_15555">
<rect width="11" height="10" fill="white"/>
</clipPath>
</defs>
</svg>
