<svg width="24" height="24" viewBox="0 0 24 24" fill="none" xmlns="http://www.w3.org/2000/svg">
<path d="M5 11.8593C5 12.0807 5.09115 12.276 5.27343 12.4453L10.3125 17.4746C10.4818 17.6373 10.6738 17.7188 10.8887 17.7188C11.1035 17.7188 11.2858 17.6472 11.4356 17.5039C11.5788 17.3607 11.6504 17.1784 11.6504 16.957C11.6504 16.8528 11.6341 16.7519 11.6016 16.6543C11.5625 16.5567 11.5072 16.4753 11.4356 16.4102L10.0879 15.0137L6.78711 12.0352L6.61133 12.4648L9.20898 12.6504H18.4278C18.6621 12.6504 18.8509 12.5755 18.9942 12.4258C19.1373 12.276 19.209 12.0873 19.209 11.8593C19.209 11.6315 19.1373 11.4427 18.9942 11.293C18.8509 11.1432 18.6621 11.0683 18.4278 11.0683H9.20898L6.61133 11.2539L6.78711 11.6738L10.0879 8.70507L11.4356 7.30859C11.5072 7.24349 11.5625 7.16211 11.6016 7.06445C11.6341 6.9668 11.6504 6.86588 11.6504 6.76172C11.6504 6.54037 11.5788 6.35808 11.4356 6.21484C11.2858 6.07162 11.1035 6 10.8887 6C10.6738 6 10.4818 6.08138 10.3125 6.24414L5.27343 11.2734C5.09115 11.4427 5 11.638 5 11.8593Z" fill="#7A899A"/>
</svg>
