<svg width="157" height="73" viewBox="0 0 157 73" fill="none" xmlns="http://www.w3.org/2000/svg">
<rect x="57.4102" y="16.9893" width="42.1791" height="42.1791" fill="#F9FAFB"/>
<path d="M81.4291 46.8665H69.908C69.2609 46.8665 68.7363 46.3419 68.7363 45.6949V30.4635C68.7363 29.8164 69.2609 29.2919 69.908 29.2919H87.092C87.7391 29.2919 88.2637 29.8164 88.2637 30.4635V41.0083" stroke="#131927" stroke-width="1.46455" stroke-linecap="round"/>
<path d="M68.7363 33.1981H88.2637" stroke="#131927" stroke-width="1.46455" stroke-linecap="round" stroke-linejoin="round"/>
<path d="M71.665 31.2536L71.6748 31.2428" stroke="#131927" stroke-width="1.46455" stroke-linecap="round" stroke-linejoin="round"/>
<path d="M74.5947 31.2536L74.6045 31.2428" stroke="#131927" stroke-width="1.46455" stroke-linecap="round" stroke-linejoin="round"/>
<path d="M77.5234 31.2536L77.5332 31.2428" stroke="#131927" stroke-width="1.46455" stroke-linecap="round" stroke-linejoin="round"/>
<path d="M84.3574 48.0798L86.4286 46.0086M86.4286 46.0086L88.4998 43.9374M86.4286 46.0086L84.3574 43.9374M86.4286 46.0086L88.4998 48.0798" stroke="#131927" stroke-width="1.46455" stroke-linecap="round" stroke-linejoin="round"/>
<rect y="16.4033" width="157" height="0.585821" fill="url(#paint0_linear_261_3510)"/>
<rect y="58.5824" width="157" height="0.585821" fill="url(#paint1_linear_261_3510)"/>
<rect x="56.8242" y="72.0563" width="72.056" height="0.585821" transform="rotate(-90 56.8242 72.0563)" fill="url(#paint2_linear_261_3510)"/>
<rect x="99.5898" y="72.0563" width="72.056" height="0.585821" transform="rotate(-90 99.5898 72.0563)" fill="url(#paint3_linear_261_3510)"/>
<defs>
<linearGradient id="paint0_linear_261_3510" x1="0" y1="16.6962" x2="157" y2="16.6962" gradientUnits="userSpaceOnUse">
<stop stop-color="#EFEFEF" stop-opacity="0"/>
<stop offset="0.46" stop-color="#EFEFEF"/>
<stop offset="1" stop-color="#EFEFEF" stop-opacity="0"/>
</linearGradient>
<linearGradient id="paint1_linear_261_3510" x1="0" y1="58.8753" x2="157" y2="58.8753" gradientUnits="userSpaceOnUse">
<stop stop-color="#EFEFEF" stop-opacity="0"/>
<stop offset="0.46" stop-color="#EFEFEF"/>
<stop offset="1" stop-color="#EFEFEF" stop-opacity="0"/>
</linearGradient>
<linearGradient id="paint2_linear_261_3510" x1="128.88" y1="72.3492" x2="56.8242" y2="72.3492" gradientUnits="userSpaceOnUse">
<stop stop-color="#EFEFEF" stop-opacity="0"/>
<stop offset="0.475" stop-color="#EFEFEF"/>
<stop offset="1" stop-color="#EFEFEF" stop-opacity="0"/>
</linearGradient>
<linearGradient id="paint3_linear_261_3510" x1="171.646" y1="72.3492" x2="99.5898" y2="72.3492" gradientUnits="userSpaceOnUse">
<stop stop-color="#EFEFEF" stop-opacity="0"/>
<stop offset="0.475" stop-color="#EFEFEF"/>
<stop offset="1" stop-color="#EFEFEF" stop-opacity="0"/>
</linearGradient>
</defs>
</svg>
