<svg width="157" height="73" viewBox="0 0 157 73" fill="none" xmlns="http://www.w3.org/2000/svg">
<rect x="57.4102" y="16.9888" width="42.1791" height="42.1791" fill="#1A242E"/>
<path d="M81.4291 46.8661H69.908C69.2609 46.8661 68.7363 46.3416 68.7363 45.6945V30.4631C68.7363 29.8161 69.2609 29.2915 69.908 29.2915H87.092C87.7391 29.2915 88.2637 29.8161 88.2637 30.4631V41.0079" stroke="#7A8A99" stroke-width="1.46455" stroke-linecap="round"/>
<path d="M68.7363 33.1978H88.2637" stroke="#7A8A99" stroke-width="1.46455" stroke-linecap="round" stroke-linejoin="round"/>
<path d="M71.665 31.2534L71.6748 31.2426" stroke="#7A8A99" stroke-width="1.46455" stroke-linecap="round" stroke-linejoin="round"/>
<path d="M74.5947 31.2534L74.6045 31.2426" stroke="#7A8A99" stroke-width="1.46455" stroke-linecap="round" stroke-linejoin="round"/>
<path d="M77.5234 31.2534L77.5332 31.2426" stroke="#7A8A99" stroke-width="1.46455" stroke-linecap="round" stroke-linejoin="round"/>
<path d="M84.3574 48.0794L86.4286 46.0082M86.4286 46.0082L88.4998 43.937M86.4286 46.0082L84.3574 43.937M86.4286 46.0082L88.4998 48.0794" stroke="#7A8A99" stroke-width="1.46455" stroke-linecap="round" stroke-linejoin="round"/>
<rect opacity="0.15" y="16.4033" width="157" height="0.585821" fill="url(#paint0_linear_261_1189)"/>
<rect opacity="0.15" y="58.582" width="157" height="0.585821" fill="url(#paint1_linear_261_1189)"/>
<rect opacity="0.15" x="56.8242" y="72.0562" width="72.056" height="0.585821" transform="rotate(-90 56.8242 72.0562)" fill="url(#paint2_linear_261_1189)"/>
<rect opacity="0.15" x="99.5898" y="72.0562" width="72.056" height="0.585821" transform="rotate(-90 99.5898 72.0562)" fill="url(#paint3_linear_261_1189)"/>
<defs>
<linearGradient id="paint0_linear_261_1189" x1="0" y1="16.6962" x2="157" y2="16.6962" gradientUnits="userSpaceOnUse">
<stop stop-color="#EFEFEF" stop-opacity="0"/>
<stop offset="0.46" stop-color="#EFEFEF"/>
<stop offset="1" stop-color="#EFEFEF" stop-opacity="0"/>
</linearGradient>
<linearGradient id="paint1_linear_261_1189" x1="0" y1="58.8749" x2="157" y2="58.8749" gradientUnits="userSpaceOnUse">
<stop stop-color="#EFEFEF" stop-opacity="0"/>
<stop offset="0.46" stop-color="#EFEFEF"/>
<stop offset="1" stop-color="#EFEFEF" stop-opacity="0"/>
</linearGradient>
<linearGradient id="paint2_linear_261_1189" x1="128.88" y1="72.3491" x2="56.8242" y2="72.3491" gradientUnits="userSpaceOnUse">
<stop stop-color="#EFEFEF" stop-opacity="0"/>
<stop offset="0.475" stop-color="#EFEFEF"/>
<stop offset="1" stop-color="#EFEFEF" stop-opacity="0"/>
</linearGradient>
<linearGradient id="paint3_linear_261_1189" x1="171.646" y1="72.3491" x2="99.5898" y2="72.3491" gradientUnits="userSpaceOnUse">
<stop stop-color="#EFEFEF" stop-opacity="0"/>
<stop offset="0.475" stop-color="#EFEFEF"/>
<stop offset="1" stop-color="#EFEFEF" stop-opacity="0"/>
</linearGradient>
</defs>
</svg>
