<svg width="161" height="110" viewBox="0 0 161 110" fill="none" xmlns="http://www.w3.org/2000/svg">
<g clip-path="url(#clip0_2633_11593)">
<path d="M47.4034 131.652V146.613H77.3261V131.652H87.5846C94.5309 131.652 101.34 129.718 107.249 126.066C113.158 122.414 117.933 117.189 121.039 110.976C124.146 104.763 125.461 97.8079 124.837 90.8897C124.213 83.9715 121.675 77.3637 117.507 71.8067C121.675 66.2497 124.213 59.6419 124.837 52.7237C125.461 45.8056 124.146 38.8503 121.039 32.6374C117.933 26.4245 113.158 21.1994 107.249 17.5475C101.34 13.8956 94.5309 11.9613 87.5846 11.9613H77.3261V-3H47.4034V11.9613H10V131.652H47.4034ZM39.9227 86.7681H87.5846C89.5686 86.7681 91.4714 87.5562 92.8743 88.9591C94.2772 90.362 95.0653 92.2648 95.0653 94.2488C95.0653 96.2327 94.2772 98.1355 92.8743 99.5384C91.4714 100.941 89.5686 101.729 87.5846 101.729H39.9227V86.7681ZM39.9227 41.884H87.5846C89.5686 41.884 91.4714 42.6722 92.8743 44.0751C94.2772 45.478 95.0653 47.3807 95.0653 49.3647C95.0653 51.3487 94.2772 53.2515 92.8743 54.6544C91.4714 56.0573 89.5686 56.8454 87.5846 56.8454H39.9227V41.884Z" fill="white"/>
</g>
<defs>
<clipPath id="clip0_2633_11593">
<rect width="160.496" height="143" fill="white"/>
</clipPath>
</defs>
</svg>
