<svg width="31" height="31" viewBox="0 0 31 31" fill="none" xmlns="http://www.w3.org/2000/svg">
<g clip-path="url(#clip0_1560_2105)">
<g clip-path="url(#clip1_1560_2105)">
<path d="M15.5 30.5C23.7843 30.5 30.5 23.7843 30.5 15.5C30.5 7.21573 23.7843 0.5 15.5 0.5C7.21573 0.5 0.5 7.21573 0.5 15.5C0.5 23.7843 7.21573 30.5 15.5 30.5Z" fill="#F7931A"/>
<path d="M13.4034 22.0521V23.6135H16.5261V22.0521H17.5966C18.3215 22.0521 19.0321 21.8503 19.6488 21.4692C20.2654 21.0881 20.7637 20.5428 21.0879 19.8944C21.4121 19.246 21.5493 18.5202 21.4842 17.7982C21.4191 17.0762 21.1543 16.3867 20.7193 15.8067C21.1543 15.2268 21.4191 14.5372 21.4842 13.8153C21.5493 13.0933 21.4121 12.3674 21.0879 11.7191C20.7637 11.0707 20.2654 10.5254 19.6488 10.1443C19.0321 9.76321 18.3215 9.56135 17.5966 9.56135H16.5261V8H13.4034V9.56135H9.5V22.0521H13.4034ZM12.6227 17.3681H17.5966C17.8037 17.3681 18.0022 17.4503 18.1487 17.5967C18.2951 17.7431 18.3773 17.9417 18.3773 18.1488C18.3773 18.3558 18.2951 18.5544 18.1487 18.7008C18.0022 18.8472 17.8037 18.9294 17.5966 18.9294H12.6227V17.3681ZM12.6227 12.684H17.5966C17.8037 12.684 18.0022 12.7663 18.1487 12.9127C18.2951 13.0591 18.3773 13.2577 18.3773 13.4647C18.3773 13.6718 18.2951 13.8703 18.1487 14.0167C18.0022 14.1631 17.8037 14.2454 17.5966 14.2454H12.6227V12.684Z" fill="white"/>
</g>
</g>
<defs>
<clipPath id="clip0_1560_2105">
<rect width="30" height="30" fill="white" transform="translate(0.5 0.5)"/>
</clipPath>
<clipPath id="clip1_1560_2105">
<rect width="30" height="30" fill="white" transform="translate(0.5 0.5)"/>
</clipPath>
</defs>
</svg>
