<svg width="24" height="24" viewBox="0 0 24 24" fill="none" xmlns="http://www.w3.org/2000/svg">
<path d="M18.6667 3.91634H16.6667V3.24967C16.6667 3.07286 16.5964 2.90329 16.4714 2.77827C16.3464 2.65325 16.1768 2.58301 16 2.58301C15.8232 2.58301 15.6536 2.65325 15.5286 2.77827C15.4036 2.90329 15.3333 3.07286 15.3333 3.24967V3.91634H8.66667V3.24967C8.66667 3.07286 8.59643 2.90329 8.4714 2.77827C8.34638 2.65325 8.17681 2.58301 8 2.58301C7.82319 2.58301 7.65362 2.65325 7.5286 2.77827C7.40357 2.90329 7.33333 3.07286 7.33333 3.24967V3.91634H5.33333C4.97971 3.91634 4.64057 4.05682 4.39052 4.30687C4.14048 4.55691 4 4.89605 4 5.24967V18.583C4 18.9366 4.14048 19.2758 4.39052 19.5258C4.64057 19.7759 4.97971 19.9163 5.33333 19.9163H18.6667C19.0203 19.9163 19.3594 19.7759 19.6095 19.5258C19.8595 19.2758 20 18.9366 20 18.583V5.24967C20 4.89605 19.8595 4.55691 19.6095 4.30687C19.3594 4.05682 19.0203 3.91634 18.6667 3.91634ZM7.33333 5.24967V5.91634C7.33333 6.09315 7.40357 6.26272 7.5286 6.38775C7.65362 6.51277 7.82319 6.58301 8 6.58301C8.17681 6.58301 8.34638 6.51277 8.4714 6.38775C8.59643 6.26272 8.66667 6.09315 8.66667 5.91634V5.24967H15.3333V5.91634C15.3333 6.09315 15.4036 6.26272 15.5286 6.38775C15.6536 6.51277 15.8232 6.58301 16 6.58301C16.1768 6.58301 16.3464 6.51277 16.4714 6.38775C16.5964 6.26272 16.6667 6.09315 16.6667 5.91634V5.24967H18.6667V7.91634H5.33333V5.24967H7.33333ZM18.6667 18.583H5.33333V9.24967H18.6667V18.583Z" fill="#7A8A99"/>
</svg>
