<svg width="24" height="24" viewBox="0 0 24 24" fill="none" xmlns="http://www.w3.org/2000/svg">
<path d="M18.6667 3.91536H16.6667V3.2487C16.6667 3.07189 16.5964 2.90232 16.4714 2.77729C16.3464 2.65227 16.1768 2.58203 16 2.58203C15.8232 2.58203 15.6536 2.65227 15.5286 2.77729C15.4036 2.90232 15.3333 3.07189 15.3333 3.2487V3.91536H8.66667V3.2487C8.66667 3.07189 8.59643 2.90232 8.4714 2.77729C8.34638 2.65227 8.17681 2.58203 8 2.58203C7.82319 2.58203 7.65362 2.65227 7.5286 2.77729C7.40357 2.90232 7.33333 3.07189 7.33333 3.2487V3.91536H5.33333C4.97971 3.91536 4.64057 4.05584 4.39052 4.30589C4.14048 4.55594 4 4.89508 4 5.2487V18.582C4 18.9357 4.14048 19.2748 4.39052 19.5248C4.64057 19.7749 4.97971 19.9154 5.33333 19.9154H18.6667C19.0203 19.9154 19.3594 19.7749 19.6095 19.5248C19.8595 19.2748 20 18.9357 20 18.582V5.2487C20 4.89508 19.8595 4.55594 19.6095 4.30589C19.3594 4.05584 19.0203 3.91536 18.6667 3.91536ZM7.33333 5.2487V5.91536C7.33333 6.09218 7.40357 6.26174 7.5286 6.38677C7.65362 6.51179 7.82319 6.58203 8 6.58203C8.17681 6.58203 8.34638 6.51179 8.4714 6.38677C8.59643 6.26174 8.66667 6.09218 8.66667 5.91536V5.2487H15.3333V5.91536C15.3333 6.09218 15.4036 6.26174 15.5286 6.38677C15.6536 6.51179 15.8232 6.58203 16 6.58203C16.1768 6.58203 16.3464 6.51179 16.4714 6.38677C16.5964 6.26174 16.6667 6.09218 16.6667 5.91536V5.2487H18.6667V7.91536H5.33333V5.2487H7.33333ZM18.6667 18.582H5.33333V9.2487H18.6667V18.582ZM15.4717 11.4437C15.5337 11.5056 15.5828 11.5791 15.6164 11.6601C15.6499 11.741 15.6672 11.8278 15.6672 11.9154C15.6672 12.003 15.6499 12.0897 15.6164 12.1707C15.5828 12.2516 15.5337 12.3251 15.4717 12.387L11.4717 16.387C11.4098 16.449 11.3362 16.4982 11.2553 16.5317C11.1744 16.5653 11.0876 16.5826 11 16.5826C10.9124 16.5826 10.8256 16.5653 10.7447 16.5317C10.6638 16.4982 10.5902 16.449 10.5283 16.387L8.52833 14.387C8.40324 14.2619 8.33296 14.0923 8.33296 13.9154C8.33296 13.7385 8.40324 13.5688 8.52833 13.4437C8.65343 13.3186 8.82309 13.2483 9 13.2483C9.17691 13.2483 9.34657 13.3186 9.47167 13.4437L11 14.9729L14.5283 11.4437C14.5902 11.3817 14.6638 11.3325 14.7447 11.299C14.8256 11.2654 14.9124 11.2482 15 11.2482C15.0876 11.2482 15.1744 11.2654 15.2553 11.299C15.3362 11.3325 15.4098 11.3817 15.4717 11.4437Z" fill="#7A8A99"/>
</svg>
