<svg width="8" height="8" viewBox="0 0 8 8" xmlns="http://www.w3.org/2000/svg">
    <path
            fill-rule="evenodd"
            clip-rule="evenodd"
            d="M7.01546 7.0052C7.30835 6.71231 7.30835 6.23744 7.01546 5.94454L5.07091 4L7.01546 2.05546C7.30835 1.76256 7.30835 1.28769 7.01546 0.994797C6.72256 0.701904 6.24769 0.701904 5.9548 0.994797L4.01025 2.93934L2.06571 0.994797C1.77282 0.701904 1.29794 0.701904 1.00505 0.994797C0.712157 1.28769 0.712157 1.76256 1.00505 2.05546L2.94959 4L1.00505 5.94454C0.712157 6.23744 0.712157 6.71231 1.00505 7.0052C1.29794 7.2981 1.77282 7.2981 2.06571 7.0052L4.01025 5.06066L5.9548 7.0052C6.24769 7.2981 6.72256 7.2981 7.01546 7.0052Z"
            fill="currentColor"
    />
</svg>