<svg
  xmlns="http://www.w3.org/2000/svg"
  viewBox="0 0 20 20"
  fill="currentColor"
>
  <path
    d="M12.084 6.25098C13.0045 6.25098 13.751 6.99749 13.751 7.91797V15.418C13.7508 16.3383 13.0044 17.084 12.084 17.084H4.58398C3.66377 17.0838 2.91814 16.3382 2.91797 15.418V7.91797C2.91797 6.9976 3.66366 6.25115 4.58398 6.25098H12.084ZM5.00098 7.91797C4.77097 7.91797 4.58416 8.10401 4.58398 8.33398V15.001C4.58398 15.2311 4.77086 15.418 5.00098 15.418H11.668C11.8979 15.4178 12.084 15.231 12.084 15.001V8.33398C12.0838 8.10412 11.8978 7.91814 11.668 7.91797H5.00098ZM15.418 2.91797C16.3382 2.91814 17.0838 3.66377 17.084 4.58398V12.084C17.084 13.0044 16.3383 13.7508 15.418 13.751H14.7236V12.084H15.001C15.231 12.084 15.4178 11.8979 15.418 11.668V5.00098C15.418 4.77086 15.2311 4.58398 15.001 4.58398H8.33398C8.10402 4.58416 7.91797 4.77097 7.91797 5.00098V5.27832H6.25098V4.58398C6.25115 3.66366 6.9976 2.91797 7.91797 2.91797H15.418Z"
  />
</svg>