<svg width="31" height="31" viewBox="0 0 31 31" fill="none" xmlns="http://www.w3.org/2000/svg">
<path d="M15.5 30.5C23.7843 30.5 30.5 23.7843 30.5 15.5C30.5 7.21573 23.7843 0.5 15.5 0.5C7.21573 0.5 0.5 7.21573 0.5 15.5C0.5 23.7843 7.21573 30.5 15.5 30.5Z" fill="#627EEA"/>
<path d="M15.9688 4.25V12.5656L22.9972 15.7062L15.9688 4.25Z" fill="white"/>
<path d="M15.9669 4.25L8.9375 15.7062L15.9669 12.5656V4.25Z" fill="white"/>
<path d="M15.9688 21.0937V26.744L23.0019 17.0137L15.9688 21.0937Z" fill="white"/>
<path d="M15.9669 26.744V21.0927L8.9375 17.0137L15.9669 26.744Z" fill="white"/>
<path d="M15.9688 19.79L22.9972 15.7091L15.9688 12.5703V19.79Z" fill="white"/>
<path d="M8.9375 15.7091L15.9669 19.79V12.5703L8.9375 15.7091Z" fill="white"/>
</svg>
