<svg width="16" height="17" viewBox="0 0 16 17" fill="none" xmlns="http://www.w3.org/2000/svg">
<path d="M7.22266 4.49707C7.59065 4.4973 7.88867 4.79602 7.88867 5.16406C7.88867 5.53211 7.59065 5.83082 7.22266 5.83105H5.16699C4.89085 5.83105 4.66699 6.05491 4.66699 6.33105V11.3311C4.66717 11.607 4.89096 11.8311 5.16699 11.8311H10.167C10.4429 11.8309 10.6668 11.6069 10.667 11.3311V9.27539C10.667 8.90731 10.965 8.60857 11.333 8.6084C11.7012 8.6084 12 8.9072 12 9.27539V11.8311C11.9998 12.5672 11.4031 13.1639 10.667 13.1641H4.66699C3.93072 13.1641 3.33318 12.5673 3.33301 11.8311V5.83105C3.33301 5.09467 3.93061 4.49707 4.66699 4.49707H7.22266ZM12.4434 3.5C12.818 3.50004 13.119 3.80119 13.1191 4.17578V6.6416C13.1191 7.01499 12.8167 7.31832 12.4434 7.31836C12.0699 7.31835 11.7676 7.01501 11.7676 6.6416V5.58008L11.1875 6.39062L7.76465 9.81543C7.50036 10.0797 7.07196 10.0797 6.80762 9.81543C6.54335 9.55117 6.54345 9.12275 6.80762 8.8584L10.2363 5.42773L11.0488 4.85254H9.97754C9.60412 4.85254 9.30176 4.5492 9.30176 4.17578C9.30195 3.80252 9.60424 3.5 9.97754 3.5H12.4434Z" fill="#7A8A99"/>
</svg>
