<svg width="24" height="24" viewBox="0 0 24 24" fill="none" xmlns="http://www.w3.org/2000/svg">
<path d="M22.4396 11.7165C22.409 11.6474 21.6679 10.0032 20.0202 8.35562C17.8249 6.16025 15.052 5 12 5C8.94799 5 6.17512 6.16025 3.97974 8.35562C2.33212 10.0032 1.58749 11.65 1.56037 11.7165C1.52057 11.806 1.5 11.9029 1.5 12.0009C1.5 12.0988 1.52057 12.1957 1.56037 12.2852C1.59099 12.3544 2.33212 13.9976 3.97974 15.6453C6.17512 17.8398 8.94799 19 12 19C15.052 19 17.8249 17.8398 20.0202 15.6453C21.6679 13.9976 22.409 12.3544 22.4396 12.2852C22.4794 12.1957 22.5 12.0988 22.5 12.0009C22.5 11.9029 22.4794 11.806 22.4396 11.7165ZM12 17.6C9.30674 17.6 6.95387 16.6209 5.00612 14.6906C4.20693 13.8959 3.52701 12.9896 2.98749 12C3.52686 11.0103 4.2068 10.104 5.00612 9.30937C6.95387 7.37913 9.30674 6.4 12 6.4C14.6932 6.4 17.0461 7.37913 18.9939 9.30937C19.7946 10.1038 20.476 11.0101 21.0169 12C20.386 13.1777 17.6376 17.6 12 17.6ZM12 7.8C11.1693 7.8 10.3573 8.04633 9.6666 8.50783C8.97591 8.96933 8.43759 9.62528 8.1197 10.3927C7.80181 11.1602 7.71864 12.0047 7.88069 12.8194C8.04275 13.6341 8.44276 14.3825 9.03014 14.9698C9.61752 15.5572 10.3659 15.9572 11.1806 16.1193C11.9953 16.2814 12.8398 16.1982 13.6073 15.8803C14.3747 15.5624 15.0307 15.0241 15.4922 14.3334C15.9537 13.6427 16.2 12.8307 16.2 12C16.1988 10.8864 15.756 9.81883 14.9686 9.03143C14.1812 8.24403 13.1135 7.80116 12 7.8ZM12 14.8C11.4462 14.8 10.9049 14.6358 10.4444 14.3281C9.98394 14.0204 9.62506 13.5831 9.41313 13.0715C9.2012 12.5599 9.14575 11.9969 9.25379 11.4537C9.36183 10.9106 9.62851 10.4117 10.0201 10.0201C10.4117 9.62851 10.9106 9.36184 11.4537 9.2538C11.9969 9.14576 12.5599 9.20121 13.0715 9.41314C13.5831 9.62506 14.0204 9.98395 14.3281 10.4444C14.6358 10.9049 14.8 11.4462 14.8 12C14.8 12.7426 14.505 13.4548 13.9799 13.9799C13.4548 14.505 12.7426 14.8 12 14.8Z" fill="#7A8A99"/>
</svg>
