<svg width="31" height="31" viewBox="0 0 31 31" fill="none" xmlns="http://www.w3.org/2000/svg">
<rect x="0.5" y="0.5" width="30" height="30" rx="15" fill="#00AAFF"/>
<path d="M15.1087 7.10267C15.3089 6.85051 15.6918 6.85051 15.8919 7.10267L22.4744 15.3944C22.7251 15.7102 22.4039 16.1565 22.0248 16.0191L20.2712 15.3836C17.1898 14.2669 13.8144 14.2667 10.7329 15.3829L8.9756 16.0195C8.5965 16.1568 8.27539 15.7105 8.52608 15.3947L15.1087 7.10267Z" fill="#ffffff"/>
<path d="M15.2654 14.796C15.3855 14.6447 15.6152 14.6447 15.7353 14.796L22.4744 23.285C22.7251 23.6008 22.4039 24.0471 22.0248 23.9098L20.2712 23.2742C17.1898 22.1575 13.8144 22.1573 10.7329 23.2735L8.9756 23.9101C8.5965 24.0474 8.27539 23.6011 8.52608 23.2853L15.2654 14.796Z" fill="#ffffff"/>
</svg>
