<svg width="15" height="14" viewBox="0 0 15 14" fill="none" xmlns="http://www.w3.org/2000/svg">
<path d="M8.6665 11.9003V8.51699C8.6665 8.32369 8.8232 8.16699 9.0165 8.16699H12.3998C12.5931 8.16699 12.7498 8.32369 12.7498 8.51699V11.9003C12.7498 12.0936 12.5931 12.2503 12.3998 12.2503H9.0165C8.8232 12.2503 8.6665 12.0936 8.6665 11.9003Z" stroke="#516070"/>
<path d="M2.25 11.9003V8.51699C2.25 8.32369 2.4067 8.16699 2.6 8.16699H5.98333C6.17663 8.16699 6.33333 8.32369 6.33333 8.51699V11.9003C6.33333 12.0936 6.17663 12.2503 5.98333 12.2503H2.6C2.4067 12.2503 2.25 12.0936 2.25 11.9003Z" stroke="#516070"/>
<path d="M8.6665 5.48333V2.1C8.6665 1.9067 8.8232 1.75 9.0165 1.75H12.3998C12.5931 1.75 12.7498 1.9067 12.7498 2.1V5.48333C12.7498 5.67663 12.5931 5.83333 12.3998 5.83333H9.0165C8.8232 5.83333 8.6665 5.67663 8.6665 5.48333Z" stroke="#516070"/>
<path d="M2.25 5.48333V2.1C2.25 1.9067 2.4067 1.75 2.6 1.75H5.98333C6.17663 1.75 6.33333 1.9067 6.33333 2.1V5.48333C6.33333 5.67663 6.17663 5.83333 5.98333 5.83333H2.6C2.4067 5.83333 2.25 5.67663 2.25 5.48333Z" stroke="#516070"/>
</svg>
