<svg width="121" height="27" viewBox="0 0 121 27" fill="none" xmlns="http://www.w3.org/2000/svg">
<mask id="mask0_370_396" style="mask-type:luminance" maskUnits="userSpaceOnUse" x="0" y="0" width="121" height="27">
<path d="M121 0H0V27H121V0Z" fill="white"/>
</mask>
<g mask="url(#mask0_370_396)">
<path fill-rule="evenodd" clip-rule="evenodd" d="M118.78 15.3565C118.78 13.7776 117.85 12.5889 116.382 12.5889C114.914 12.5889 113.983 13.7776 113.983 15.3565C113.983 16.9353 114.914 18.124 116.382 18.124C117.853 18.127 118.78 16.9383 118.78 15.3565ZM118.708 11.5294V7.39316C118.708 7.12001 118.891 6.88288 119.155 6.81384L121.349 6.22852V20.2251H118.915V19.0365C118.303 19.9279 117.204 20.4502 115.829 20.4502C113.005 20.4502 111.351 18.184 111.351 15.3595C111.351 12.5349 113.005 10.2687 115.829 10.2687C117.201 10.2657 118.207 10.86 118.708 11.5294ZM103.733 10.4878V11.6765C104.18 10.839 105.183 10.2627 106.632 10.2627C108.974 10.2627 110.219 11.8235 110.219 14.1468V20.2251H107.581V14.447C107.581 13.3123 107.098 12.5319 105.927 12.5319C104.645 12.5319 103.94 13.3484 103.94 14.6511V20.2251H101.302V10.4878H103.733ZM95.1329 20.4502C92.2904 20.4502 90.7085 19.2226 90.7085 16.0648V10.4878H93.3469V16.1009C93.3469 17.4576 93.9593 18.0879 95.1299 18.0879C96.3005 18.0879 96.9129 17.4546 96.9129 16.1009V10.4878H99.5513V16.0618C99.5573 19.2226 97.9754 20.4502 95.1329 20.4502ZM81.9978 15.3565C81.9978 17.1034 83.0754 18.124 84.4681 18.124C85.8609 18.124 86.9385 17.1004 86.9385 15.3565C86.9385 13.6125 85.8609 12.5889 84.4681 12.5889C83.0784 12.5889 81.9978 13.6095 81.9978 15.3565ZM84.4711 20.4502C81.3494 20.4502 79.3593 18.127 79.3593 15.3595C79.3593 12.592 81.3464 10.2687 84.4711 10.2687C87.5928 10.2687 89.5829 12.592 89.5829 15.3595C89.5799 18.127 87.5928 20.4502 84.4711 20.4502ZM71.318 15.3565C71.318 16.9353 72.2485 18.124 73.7163 18.124C75.1841 18.124 76.1146 16.9353 76.1146 15.3565C76.1146 13.7776 75.1841 12.5889 73.7163 12.5889C72.2485 12.5889 71.318 13.7776 71.318 15.3565ZM71.393 19.1865V23.2357C71.393 23.5089 71.2099 23.746 70.9458 23.815L68.7546 24.3914V10.4878H71.1889V11.6765C71.8012 10.785 72.8998 10.2627 74.2746 10.2627C77.0991 10.2627 78.753 12.5289 78.753 15.3535C78.753 18.178 77.0991 20.4442 74.2746 20.4442C72.8968 20.4502 71.8943 19.8559 71.393 19.1865ZM60.9173 14.6871V20.2251H58.2789V14.447C58.2789 13.3694 57.8887 12.5319 56.718 12.5319C55.4904 12.5319 54.821 13.3304 54.821 14.6331V20.2281H52.1826V10.4878H54.6169V11.6765C55.0641 10.839 56.0307 10.2627 57.4234 10.2627C58.7441 10.2627 59.6897 10.782 60.248 11.6374C61.1034 10.6889 62.088 10.2627 63.4807 10.2627C65.822 10.2627 67.0106 11.8806 67.0106 14.1468V20.2251H64.3722V14.447C64.3722 13.3694 63.982 12.5319 62.8113 12.5319C61.5657 12.5319 60.9173 13.3304 60.9173 14.6871ZM43.3788 15.3565C43.3788 17.1034 44.4564 18.124 45.8491 18.124C47.2419 18.124 48.3195 17.1004 48.3195 15.3565C48.3195 13.6125 47.2419 12.5889 45.8491 12.5889C44.4564 12.5889 43.3788 13.6095 43.3788 15.3565ZM45.8491 20.4502C42.7274 20.4502 40.7374 18.127 40.7374 15.3595C40.7374 12.592 42.7244 10.2687 45.8491 10.2687C48.9738 10.2687 50.9609 12.592 50.9609 15.3595C50.9609 18.127 48.9708 20.4502 45.8491 20.4502ZM27.0469 13.6095C27.0469 9.48529 29.8895 6.75081 33.6805 6.75081C36.9703 6.75081 39.5727 8.70187 40.074 11.9166H37.1744C36.7842 10.2627 35.4455 9.33221 33.6805 9.33221C31.2642 9.33221 29.9075 11.0041 29.9075 13.6065C29.9075 16.2089 31.2642 17.8808 33.6805 17.8808C35.4455 17.8808 36.7842 16.9503 37.1744 15.2964H40.074C39.5727 18.5112 36.9703 20.4622 33.6805 20.4622C29.8895 20.4682 27.0469 17.7367 27.0469 13.6095Z" fill="#7A8A99"/>
<path fill-rule="evenodd" clip-rule="evenodd" d="M1.08359 21.0428C0.411223 20.6315 0 19.8992 0 19.1127V14.7213C0 14.5532 0.0450245 14.3912 0.12907 14.2471C0.390212 13.7968 0.969527 13.6438 1.41977 13.9079L11.3312 19.686C11.9105 20.0252 12.2677 20.6436 12.2677 21.3159V25.8664C12.2677 26.0735 12.2106 26.2806 12.1026 26.4577C11.7754 26.992 11.079 27.1601 10.5447 26.8329L1.08359 21.0428ZM15.8576 12.7042C16.4369 13.0434 16.7941 13.6618 16.7941 14.3341V23.5671C16.7941 23.8403 16.647 24.0924 16.4099 24.2245L14.2397 25.4462C14.2127 25.4612 14.1827 25.4732 14.1527 25.4822V20.3554C14.1527 19.692 13.8045 19.0767 13.2342 18.7345L4.52946 13.5267V7.73955C4.52946 7.57145 4.57449 7.40937 4.65853 7.26529C4.91967 6.81504 5.49899 6.66196 5.94923 6.9261L15.8576 12.7042ZM20.195 5.88454C20.7773 6.22072 21.1345 6.84506 21.1345 7.51743V21.0038C21.1345 21.2799 20.9814 21.535 20.7383 21.6671L18.6821 22.7777V13.3886C18.6821 12.7253 18.334 12.1129 17.7667 11.7707L8.86982 6.43384V0.943854C8.86982 0.775763 8.91484 0.613675 8.99589 0.469596C9.25703 0.0193516 9.83634 -0.133731 10.2866 0.127411L20.195 5.88454Z" fill="#7A8A99"/>
</g>
</svg>
