<svg width="13" height="12" viewBox="0 0 13 12" fill="none" xmlns="http://www.w3.org/2000/svg">
<g clip-path="url(#clip0_2335_1362)">
<path fill-rule="evenodd" clip-rule="evenodd" d="M5.37995 0.922476C5.37995 0.667576 5.58659 0.460938 5.84149 0.460938H7.99535C8.25024 0.460938 8.45688 0.667576 8.45688 0.922476V11.0763C8.45688 11.3312 8.25024 11.5379 7.99535 11.5379H5.84149C5.58659 11.5379 5.37995 11.3312 5.37995 11.0763V0.922476ZM1.07227 4.61478C1.07227 4.35989 1.2789 4.15325 1.5338 4.15325H3.68765C3.94255 4.15325 4.14919 4.35989 4.14919 4.61478V11.0763C4.14919 11.3312 3.94255 11.5379 3.68765 11.5379H1.5338C1.2789 11.5379 1.07227 11.3312 1.07227 11.0763V4.61478ZM10.1492 1.6917C9.89429 1.6917 9.68765 1.89834 9.68765 2.15324V11.0763C9.68765 11.3312 9.89429 11.5379 10.1492 11.5379H12.303C12.558 11.5379 12.7646 11.3312 12.7646 11.0763V2.15324C12.7646 1.89834 12.558 1.6917 12.303 1.6917H10.1492Z" fill="#7A899A"/>
</g>
<defs>
<clipPath id="clip0_2335_1362">
<rect width="12" height="12" fill="white" transform="translate(0.919922)"/>
</clipPath>
</defs>
</svg>
