<svg width="31" height="30" viewBox="0 0 31 30" fill="none" xmlns="http://www.w3.org/2000/svg">
<g clip-path="url(#clip0_1560_2119)">
<path d="M15.5 30C23.7843 30 30.5 23.2843 30.5 15C30.5 6.71573 23.7843 0 15.5 0C7.21573 0 0.5 6.71573 0.5 15C0.5 23.2843 7.21573 30 15.5 30Z" fill="#00C289"/>
<path d="M10.2539 18V21H14.0039V22.5H17.0039V21H17.7539C18.7485 21 19.7023 20.6049 20.4056 19.9017C21.1088 19.1984 21.5039 18.2446 21.5039 17.25C21.5039 16.2554 21.1088 15.3016 20.4056 14.5983C19.7023 13.8951 18.7485 13.5 17.7539 13.5H13.2539C13.055 13.5 12.8642 13.421 12.7236 13.2803C12.5829 13.1397 12.5039 12.9489 12.5039 12.75C12.5039 12.5511 12.5829 12.3603 12.7236 12.2197C12.8642 12.079 13.055 12 13.2539 12H20.7539V9H17.0039V7.5H14.0039V9H13.2539C12.2593 9 11.3055 9.39509 10.6023 10.0983C9.89899 10.8016 9.50391 11.7554 9.50391 12.75C9.50391 13.7446 9.89899 14.6984 10.6023 15.4017C11.3055 16.1049 12.2593 16.5 13.2539 16.5H17.7539C17.9528 16.5 18.1436 16.579 18.2842 16.7197C18.4249 16.8603 18.5039 17.0511 18.5039 17.25C18.5039 17.4489 18.4249 17.6397 18.2842 17.7803C18.1436 17.921 17.9528 18 17.7539 18H10.2539Z" fill="white"/>
</g>
<defs>
<clipPath id="clip0_1560_2119">
<rect width="30" height="30" fill="white" transform="translate(0.5)"/>
</clipPath>
</defs>
</svg>
