<svg width="161" height="110" viewBox="0 0 161 110" fill="none" xmlns="http://www.w3.org/2000/svg">
<g clip-path="url(#clip0_369_394)">
<path d="M11.406 98.6841V128.308H48.436V143.12H78.0601V128.308H85.4661C95.287 128.308 104.706 124.407 111.65 117.462C118.595 110.518 122.496 101.099 122.496 91.2781C122.496 81.4571 118.595 72.0384 111.65 65.0939C104.706 58.1494 95.287 54.2481 85.4661 54.2481H41.03C39.0658 54.2481 37.1821 53.4678 35.7932 52.0789C34.4043 50.69 33.624 48.8062 33.624 46.842C33.624 44.8779 34.4043 42.9941 35.7932 41.6052C37.1821 40.2163 39.0658 39.436 41.03 39.436H115.09V9.81201H78.0601V-5H48.436V9.81201H41.03C31.2091 9.81201 21.7903 13.7134 14.8458 20.6579C7.90137 27.6023 4 37.0211 4 46.842C4 56.663 7.90137 66.0818 14.8458 73.0262C21.7903 79.9707 31.2091 83.8721 41.03 83.8721H85.4661C87.4303 83.8721 89.314 84.6523 90.7029 86.0412C92.0918 87.4301 92.8721 89.3139 92.8721 91.2781C92.8721 93.2423 92.0918 95.126 90.7029 96.5149C89.314 97.9038 87.4303 98.6841 85.4661 98.6841H11.406Z" fill="white"/>
</g>
<defs>
<clipPath id="clip0_369_394">
<rect width="160.496" height="143" fill="white"/>
</clipPath>
</defs>
</svg>
