<svg width="160" height="110" viewBox="0 0 160 110" fill="none" xmlns="http://www.w3.org/2000/svg">
<g clip-path="url(#clip0_2355_10836)">
<path opacity="0.04" d="M73.4619 43.6455C74.5078 42.328 76.5078 42.328 77.5537 43.6455L136.24 117.57C138.423 120.32 135.626 124.207 132.325 123.011L117.054 117.477C90.2205 107.752 60.8259 107.75 33.9912 117.471L18.6885 123.014C15.3874 124.209 12.5909 120.323 14.7734 117.573L73.4619 43.6455ZM72.0977 -23.3525C73.8409 -25.5482 77.1747 -25.5481 78.918 -23.3525L136.24 48.8545C138.423 51.6046 135.626 55.491 132.325 54.2949L117.054 48.7607C90.2205 39.0362 60.8259 39.0343 33.9912 48.7549L18.6885 54.2979C15.3874 55.4937 12.5909 51.6074 14.7734 48.8574L72.0977 -23.3525Z" fill="white"/>
</g>
<defs>
<clipPath id="clip0_2355_10836">
<rect width="160" height="110" fill="white"/>
</clipPath>
</defs>
</svg>
