<svg width="124" height="110" viewBox="0 0 124 110" fill="none" xmlns="http://www.w3.org/2000/svg">
<path d="M59.4619 43.6445C60.5079 42.3272 62.5078 42.3271 63.5537 43.6445L122.239 117.569C124.423 120.32 121.626 124.206 118.324 123.01L103.054 117.476C76.2205 107.751 46.8258 107.749 19.9912 117.47L4.68848 123.013C1.38726 124.209 -1.40948 120.322 0.773438 117.572L59.4619 43.6445ZM58.0977 -23.3535C59.8409 -25.5489 63.1748 -25.549 64.918 -23.3535L122.239 48.8535C124.423 51.6037 121.626 55.4904 118.324 54.2939L103.054 48.7598C76.2205 39.0352 46.8258 39.0333 19.9912 48.7539L4.68848 54.2969C1.38727 55.4927 -1.40945 51.6064 0.773438 48.8564L58.0977 -23.3535Z" fill="white"/>
</svg>
