<svg width="24" height="24" viewBox="0 0 24 24" fill="none" xmlns="http://www.w3.org/2000/svg">
    <g clip-path="url(#clip0_2001_2480)">
        <path d="M24 12C24 5.37258 18.6274 0 12 0C5.37258 0 0 5.37258 0 12C0 18.6274 5.37258 24 12 24C18.6274 24 24 18.6274 24 12Z"
              fill="white"/>
        <path fill-rule="evenodd" clip-rule="evenodd"
              d="M17.787 7.92844C18.1579 8.16154 18.3947 8.56186 18.4122 8.9992V14.9832C18.3958 15.3758 18.2133 15.7383 17.9031 15.9787L12.4982 19.1087C12.3439 19.1691 12.1809 19.1998 12.0138 19.1998C11.8314 19.1998 11.6292 19.1601 11.4885 19.0918C11.4707 19.0831 11.4202 19.0554 11.3461 19.0138C11.2983 18.9869 11.24 18.9539 11.1746 18.9167L9.19628 17.7777L7.54214 16.826L12.2736 9.01822L14.365 9.0106L9.64598 17.015L11.8474 18.2811C11.9467 18.3215 12.0639 18.3236 12.1641 18.2873L14.0245 17.2092L12.0383 14.092L13.2508 12.0344L15.8593 16.1459L16.3729 15.8483L13.6213 11.3981L14.6788 9.60364L17.5215 14.0312V9.03202C17.5147 8.88862 17.4387 8.75752 17.3173 8.68018L12.1854 5.72832C12.0654 5.6693 11.9132 5.67001 11.7933 5.73018C11.7771 5.73832 6.67904 8.68948 6.65534 8.70628C6.5609 8.77408 6.49808 8.87428 6.47786 8.98672C6.47486 9.00364 6.47264 9.02092 6.47156 9.03838L6.47936 13.8161L9.13424 9.70132C9.46856 9.15568 10.1969 8.97988 10.8729 8.98942L11.6664 9.01036L6.99098 16.5085L5.58594 15.6989V15.1889L5.58615 8.99656C5.60698 8.59144 5.80882 8.22268 6.13994 7.98532C6.20276 7.94026 6.26954 7.90066 6.33896 7.86748C6.33896 7.86748 11.3515 4.96027 11.395 4.93839C11.7626 4.75346 12.2209 4.75373 12.5878 4.93848L17.787 7.92844Z"
              fill="#0E0C15"/>
        <path d="M23.9252 12.0002C23.9252 5.4142 18.5862 0.0751953 12.0002 0.0751953C5.4142 0.0751953 0.0751953 5.4142 0.0751953 12.0002C0.0751953 18.5862 5.4142 23.9252 12.0002 23.9252C18.5862 23.9252 23.9252 18.5862 23.9252 12.0002Z"
              stroke="#2C2A32" stroke-width="0.15"/>
    </g>
    <defs>
        <clipPath id="clip0_2001_2480">
            <rect width="24" height="24" fill="white"/>
        </clipPath>
    </defs>
</svg>