<svg width="16" height="16" viewBox="0 0 16 16" fill="none" xmlns="http://www.w3.org/2000/svg">
    <g clip-path="url(#clip0_555_2634)">
        <path d="M8.02965 15.407C12.1529 15.407 15.4963 12.0636 15.4963 7.9403C15.4963 3.81704 12.1529 0.473633 8.02965 0.473633C3.9064 0.473633 0.562988 3.81704 0.562988 7.9403C0.562988 12.0636 3.9064 15.407 8.02965 15.407Z" fill="#1296DB" />
        <path d="M10.0765 9.12782C10.0765 8.03745 9.41279 7.67004 8.13042 7.49464C7.18464 7.35716 7.00094 7.13553 7.00094 6.69345C7.00094 6.2739 7.32094 5.97642 7.93961 5.97642C8.49902 5.97642 8.8202 6.17197 8.95294 6.62116C8.98257 6.7219 9.07264 6.79301 9.17694 6.79301H9.66761C9.8039 6.79301 9.91057 6.66738 9.88213 6.53345C9.72687 5.82234 9.24805 5.39567 8.49664 5.26175V4.51864C8.49664 4.38945 8.39235 4.28516 8.26316 4.28516H7.7962C7.66702 4.28516 7.56272 4.38945 7.56272 4.51864V5.2416C6.63709 5.37316 6.03976 5.98827 6.03976 6.77879C6.03976 7.8016 6.65724 8.19745 7.96213 8.37286C8.84746 8.51745 9.09872 8.70827 9.09872 9.21197C9.09872 9.71567 8.67087 10.0511 8.06879 10.0511C7.25457 10.0511 6.98553 9.69434 6.88716 9.2333C6.86346 9.12427 6.76983 9.04367 6.65842 9.04367H6.12627C5.99235 9.04367 5.88687 9.16456 5.91057 9.29612C6.04568 10.0724 6.54465 10.6425 7.56272 10.7812V11.5183C7.56272 11.6475 7.66702 11.7518 7.7962 11.7518H8.26316C8.39235 11.7518 8.49664 11.6475 8.49664 11.5183V10.7812C9.4602 10.6283 10.0765 9.95745 10.0765 9.12782Z" fill="white" />
        <path d="M6.42969 12.4021C4.64243 11.7478 3.36361 10.0293 3.36361 8.01806C3.36361 6.0068 4.64243 4.28946 6.42969 3.63406C6.54109 3.59376 6.62998 3.45865 6.62998 3.34013V2.90517C6.62998 2.72858 6.4925 2.62902 6.32421 2.68235C4.06524 3.40532 2.42969 5.52087 2.42969 8.01924C2.42969 10.5176 4.06524 12.6332 6.32421 13.3549C6.4925 13.4083 6.62998 13.3087 6.62998 13.1321V12.6972C6.62998 12.5775 6.54109 12.4435 6.42969 12.4021ZM9.73635 2.68354C9.56806 2.63021 9.43058 2.72976 9.43058 2.90635V3.34132C9.43058 3.45983 9.51946 3.59495 9.63087 3.63524C11.4181 4.28946 12.6969 6.00798 12.6969 8.01924C12.6969 10.0305 11.4181 11.7478 9.63087 12.4032C9.5088 12.4483 9.43058 12.568 9.43058 12.6972V13.1321C9.43058 13.3087 9.56806 13.4083 9.73635 13.3549C11.9953 12.6332 13.6309 10.5176 13.6309 8.01924C13.6309 5.52087 11.9941 3.40532 9.73635 2.68354Z" fill="white" />
    </g>
    <defs>
        <clipPath id="clip0_555_2634">
            <rect width="16" height="16" fill="white" />
        </clipPath>
    </defs>
</svg>