<svg width="40" height="40" viewBox="0 0 40 40" fill="none" xmlns="http://www.w3.org/2000/svg">
<rect width="40" height="40" rx="20" fill="white"/>
<path d="M20.0001 6L11 20.2775L20.0001 16.352V6Z" fill="#ACE730"/>
<path d="M20.0001 25.3222L11 20.2596L20.0001 16.3521V25.3222Z" fill="#E3F7B9"/>
<path d="M19.9994 26.9787L11 21.9146L19.9994 34V26.9787Z" fill="#ACE730"/>
<path d="M20.0001 6L29 20.2775L20.0001 16.352V6Z" fill="#90C228"/>
<path d="M20.0001 25.3222L29 20.2776L20.0001 16.3521V25.3222Z" fill="#ACE730"/>
<path d="M19.9998 26.9786L28.9996 22.0061L19.9998 34V26.9786Z" fill="#90C228"/>
<path fill-rule="evenodd" clip-rule="evenodd" d="M20 0C8.95431 0 0 8.95431 0 20C0 31.0457 8.95431 40 20 40C31.0457 40 40 31.0457 40 20C40 8.95431 31.0457 0 20 0ZM20 2C10.0589 2 2 10.0589 2 20C2 29.9411 10.0589 38 20 38C29.9411 38 38 29.9411 38 20C38 10.0589 29.9411 2 20 2Z" fill="#ACE730"/>
</svg>
