<svg width="256" height="256" viewBox="0 0 256 256" fill="none" xmlns="http://www.w3.org/2000/svg">
    <g clip-path="url(#clip0_12351_2271)">
        <path d="M128 256C198.692 256 256 198.692 256 128C256 57.3076 198.692 0 128 0C57.3076 0 0 57.3076 0 128C0 198.692 57.3076 256 128 256Z"
              fill="#BDC5D1"/>
        <path d="M72.9012 100.269L44.2403 85.6758C41.9914 90.0778 40.1014 94.6951 38.5703 99.4081L69.1691 109.313C70.1739 106.203 71.418 103.164 72.9012 100.269Z"
              fill="white"/>
        <path d="M97.2301 74.5511L113.116 101.896C115.436 100.557 117.924 99.5278 120.484 98.834L112.278 68.307C114.36 67.7567 116.489 67.2783 118.642 66.9433L113.594 35.1722C108.714 35.9378 103.857 37.1101 99.168 38.6412L108.977 68.7376C105.843 69.7663 102.804 71.0343 99.8857 72.5176L85.4595 44.3591C81.0814 46.6079 76.8229 49.2156 72.8516 52.1344L91.8233 78.1158C93.5458 76.8239 95.364 75.6516 97.2301 74.5511Z"
              fill="white"/>
        <path d="M182.423 97.2073L155.078 113.093C156.418 115.413 157.471 117.902 158.164 120.461L188.691 112.232C189.266 114.313 189.72 116.442 190.055 118.571L221.826 113.523C221.061 108.643 219.888 103.786 218.333 99.0973L188.261 108.93C187.232 105.796 185.964 102.758 184.481 99.8389L212.639 85.3888C210.39 81.0107 207.783 76.7523 204.864 72.7809L178.906 91.7526C180.15 93.523 181.323 95.3412 182.423 97.2073Z"
              fill="white"/>
        <path d="M171.277 44.2155C166.875 41.9667 162.258 40.0767 157.545 38.5455L147.664 69.1443C150.75 70.1491 153.789 71.3932 156.707 72.8765L171.277 44.2155Z"
              fill="white"/>
        <path d="M159.838 74.0009L143.785 101.872C146.106 103.212 148.259 104.863 150.149 106.753L195.174 61.5604C191.681 58.0675 187.877 54.8378 183.906 51.943L165.341 77.5656C163.57 76.2737 161.752 75.0775 159.838 74.0009Z"
              fill="white"/>
        <path d="M73.9989 97.1115L101.846 113.188C103.186 110.868 104.837 108.715 106.727 106.801L61.5823 61.7518C58.0894 65.2447 54.8596 69.0486 51.9648 73.02L77.5635 91.609C76.2956 93.3794 75.0994 95.2215 73.9989 97.1115Z"
              fill="white"/>
        <path d="M138.239 66.3931L143.096 35.1244C138.287 34.3828 133.382 34 128.478 34H128.406V97.7814H128.478C131.158 97.7814 133.837 98.1163 136.397 98.8101L144.651 67.7328C142.545 67.1587 140.416 66.728 138.239 66.3931Z"
              fill="white"/>
        <path d="M98.8101 120.581L67.7328 112.303C67.1826 114.409 66.728 116.562 66.3931 118.715L35.1244 113.834C34.3828 118.643 34 123.595 34 128.5H97.7814C97.7814 125.796 98.1402 123.141 98.8101 120.581Z"
              fill="white"/>
        <path d="M184.098 156.73L212.759 171.324C215.007 166.922 216.897 162.304 218.429 157.591L187.83 147.687C186.825 150.797 185.581 153.835 184.098 156.73Z"
              fill="white"/>
        <path d="M159.746 182.424L143.884 155.079C141.564 156.419 139.075 157.448 136.516 158.142L144.722 188.669C142.64 189.219 140.511 189.697 138.358 190.032L143.406 221.803C148.286 221.038 153.143 219.866 157.832 218.334L148.023 188.238C151.157 187.209 154.195 185.941 157.114 184.458L171.54 212.617C175.918 210.368 180.177 207.76 184.148 204.841L165.2 178.86C163.454 180.176 161.636 181.348 159.746 182.424Z"
              fill="white"/>
        <path d="M74.5747 159.792L101.92 143.907C100.58 141.586 99.5274 139.098 98.8336 136.538L68.3066 144.768C67.7324 142.687 67.2779 140.557 66.9429 138.428L35.1719 143.476C35.9374 148.357 37.1097 153.213 38.6648 157.902L68.7372 148.07C69.766 151.18 71.0339 154.242 72.5172 157.161L44.3587 171.611C46.6075 175.989 49.2153 180.247 52.134 184.219L78.0915 165.247C76.8475 163.477 75.6752 161.658 74.5747 159.792Z"
              fill="white"/>
        <path d="M85.7227 212.784C90.1247 215.033 94.742 216.923 99.455 218.454L109.336 187.855C106.249 186.85 103.211 185.606 100.292 184.123L85.7227 212.784Z"
              fill="white"/>
        <path d="M97.1404 182.999L113.193 155.127C110.873 153.787 108.72 152.137 106.83 150.247L61.8047 195.439C65.2976 198.932 69.1015 202.162 73.0729 205.056L91.6379 179.434C93.4083 180.702 95.2504 181.898 97.1404 182.999Z"
              fill="white"/>
        <path d="M182.978 159.888L155.131 143.811C153.791 146.132 152.14 148.285 150.25 150.199L195.419 195.248C198.911 191.755 202.141 187.951 205.036 183.98L179.437 165.391C180.705 163.596 181.901 161.778 182.978 159.888Z"
              fill="white"/>
        <path d="M120.582 158.19L112.328 189.267C114.433 189.817 116.587 190.272 118.74 190.607L113.883 221.875C118.692 222.617 123.596 223 128.501 223H128.573V159.218H128.501C125.821 159.218 123.142 158.859 120.582 158.19Z"
              fill="white"/>
        <path d="M159.216 128.5C159.216 131.203 158.881 133.859 158.188 136.419L189.265 144.696C189.815 142.591 190.27 140.438 190.605 138.285L221.873 143.165C222.615 138.356 222.998 133.404 222.998 128.5H159.216Z"
              fill="white"/>
    </g>
    <defs>
        <clipPath id="clip0_12351_2271">
            <rect width="256" height="256" fill="white"/>
        </clipPath>
    </defs>
</svg>
