<?xml version="1.0" encoding="UTF-8"?> <svg xmlns="http://www.w3.org/2000/svg" width="800" height="800" viewBox="0 0 800 800" fill="none"><circle cx="400" cy="400" r="300" fill="#EDF0F4"></circle><path d="M582.433 453.264C562.356 522.487 504.793 574.358 433.861 587.145V533.071C446.684 528.187 458.224 520.441 467.602 510.423C472.812 504.834 477.265 498.585 480.847 491.836C487.666 478.979 491.196 464.634 491.12 450.081C491.12 402.278 456.61 383.166 424.255 368.991L407.872 361.749C390.354 353.893 376.954 346.904 376.954 334.941C376.954 318.406 391.384 309.519 404.995 309.519C419.478 309.519 427.694 314.864 436.372 329.908L443.1 341.565L486.393 313.783L480.752 303.308C470.824 284.377 454.058 269.938 433.864 262.928V213.331C438.074 214.05 442.233 214.973 446.447 216.054C446.856 216.158 447.32 216.259 447.783 216.351C448.252 216.44 448.716 216.56 449.169 216.71C449.31 216.726 449.448 216.761 449.579 216.814C450.71 217.111 451.889 217.378 453.071 217.737C501.459 231.814 542.274 264.537 566.534 308.707C590.795 352.878 596.514 404.877 582.433 453.264Z" fill="#745DDF"></path><path d="M437.967 452.703C437.967 474.478 418.297 487.932 400.117 487.932C378.291 487.932 365.811 469.906 363.397 453.163L361.343 438.629L308.961 453.38L311.337 465.09C318.834 502.014 344.051 528.567 378.305 536.578V588.909C369.013 587.821 359.812 586.053 350.779 583.618C349.496 583.321 348.261 582.95 346.978 582.591C265.877 558.975 210.08 484.686 210 400.217V217.645C210.005 213.507 213.359 210.153 217.497 210.148H378.294V262.429C359.477 267.877 343.445 280.291 333.46 297.144C327.056 308.352 323.725 321.053 323.804 333.961V334.988C324.312 377.619 355.645 395.44 385.226 408.843L400.025 415.262L401.257 415.826C424.719 426.562 437.967 433.596 437.967 452.703Z" fill="#2EB6EA"></path><path d="M491.12 450.081C491.196 464.633 487.668 478.977 480.85 491.833C477.266 498.583 472.811 504.833 467.599 510.423C458.221 520.439 446.681 528.183 433.858 533.065L433.881 587.401L418.694 588.743C418.694 588.743 386.126 589.719 378.371 588.743L378.29 536.566C344.038 528.552 318.822 502.002 311.325 465.072L308.949 453.362L361.331 438.623L363.385 453.157C365.811 469.906 378.29 487.935 400.117 487.935C418.297 487.935 437.967 474.478 437.967 452.706C437.967 433.602 424.716 426.577 401.248 415.832L400.016 415.268L385.226 408.849C355.645 395.44 324.317 377.619 323.804 334.994V333.967C323.725 321.059 327.055 308.358 333.459 297.15C343.443 280.295 359.474 267.879 378.29 262.429V210.095C412.542 209.804 415.164 210.006 433.858 213.29V262.942C454.052 269.953 470.818 284.392 480.746 303.323L486.388 313.798L443.104 341.556L436.376 329.899C427.697 314.852 419.478 309.51 404.998 309.51C391.387 309.51 376.957 318.394 376.957 334.932C376.957 346.898 390.36 353.881 407.875 361.74L424.253 368.991C456.616 383.166 491.12 402.269 491.12 450.081Z" fill="white"></path></svg> 