<svg width="24" height="24" viewBox="0 0 24 24" fill="none" xmlns="http://www.w3.org/2000/svg">
    <g clip-path="url(#clip0_70_4406)">
        <path d="M24 12C24 5.37258 18.6274 0 12 0C5.37258 0 0 5.37258 0 12C0 18.6274 5.37258 24 12 24C18.6274 24 24 18.6274 24 12Z"
              fill="#8247E5"/>
        <path d="M15.7027 9.52669C15.4382 9.37501 15.1001 9.37501 14.801 9.52669L12.6943 10.7748L11.2639 11.5679L9.1962 12.8117C8.93178 12.9634 8.59368 12.9634 8.29458 12.8117L6.6777 11.8279C6.41328 11.6762 6.22692 11.3729 6.22692 11.0348V9.14533C6.22692 8.84191 6.3786 8.54287 6.6777 8.35219L8.29458 7.40743C8.559 7.25575 8.8971 7.25575 9.1962 7.40743L10.8131 8.39119C11.0775 8.54287 11.2639 8.84629 11.2639 9.18433V10.4324L12.6943 9.60037V8.31751C12.6943 8.01415 12.5426 7.71511 12.2435 7.52443L9.2352 5.74755C8.97078 5.59587 8.63268 5.59587 8.33358 5.74755L5.25159 7.56343C4.9525 7.71511 4.80078 8.01847 4.80078 8.31751V11.867C4.80078 12.1703 4.9525 12.4694 5.25159 12.6601L8.2989 14.437C8.56332 14.5886 8.90142 14.5886 9.20052 14.437L11.2682 13.2278L12.6987 12.3957L14.7664 11.1865C15.0308 11.0348 15.3689 11.0348 15.668 11.1865L17.2848 12.1314C17.5492 12.283 17.7356 12.5864 17.7356 12.9244V14.814C17.7356 15.1174 17.5839 15.4164 17.2848 15.6071L15.707 16.5519C15.4426 16.7035 15.1045 16.7035 14.8054 16.5519L13.1842 15.6071C12.9197 15.4554 12.7334 15.1521 12.7334 14.814V13.6048L11.3029 14.437V15.6851C11.3029 15.9884 11.4546 16.2875 11.7537 16.4782L14.801 18.2551C15.0655 18.4067 15.4036 18.4067 15.7027 18.2551L18.7499 16.4782C19.0144 16.3265 19.2008 16.0231 19.2008 15.6851V12.0967C19.2008 11.7933 19.049 11.4943 18.7499 11.3036L15.7027 9.52669Z"
              fill="white"/>
        <path d="M23.9242 12.0002C23.9242 5.4142 18.5852 0.0751953 11.9992 0.0751953C5.41322 0.0751953 0.0742188 5.4142 0.0742188 12.0002C0.0742188 18.5862 5.41322 23.9252 11.9992 23.9252C18.5852 23.9252 23.9242 18.5862 23.9242 12.0002Z"
              stroke="#2C2A32" stroke-width="0.15"/>
    </g>
    <defs>
        <clipPath id="clip0_70_4406">
            <rect width="24" height="24" fill="white"/>
        </clipPath>
    </defs>
</svg>
