<svg width="40" height="40" viewBox="0 0 40 40" fill="none" xmlns="http://www.w3.org/2000/svg">
<rect width="40" height="40" rx="20" fill="#39414A"/>
<path d="M24.6273 16.9093C24.2968 16.7197 23.8742 16.7197 23.5003 16.9093L20.8669 18.4695L19.0789 19.4609L16.4943 21.0157C16.1638 21.2053 15.7411 21.2053 15.3672 21.0157L13.3462 19.7859C13.0157 19.5963 12.7827 19.2171 12.7827 18.7946V16.4326C12.7827 16.0534 12.9723 15.6796 13.3462 15.4412L15.3672 14.2603C15.6978 14.0706 16.1204 14.0706 16.4943 14.2603L18.5154 15.49C18.8459 15.6796 19.0789 16.0588 19.0789 16.4814V18.0416L20.8669 17.0014V15.3979C20.8669 15.0187 20.6773 14.6449 20.3034 14.4065L16.543 12.1854C16.2125 11.9958 15.7899 11.9958 15.416 12.1854L11.5635 14.4553C11.1896 14.6449 11 15.0241 11 15.3979V19.8347C11 20.2139 11.1896 20.5877 11.5635 20.8261L15.3727 23.0472C15.7032 23.2368 16.1258 23.2368 16.4997 23.0472L19.0843 21.5357L20.8724 20.4956L23.457 18.9842C23.7875 18.7946 24.2101 18.7946 24.584 18.9842L26.6051 20.1651C26.9356 20.3547 27.1686 20.734 27.1686 21.1565V23.5185C27.1686 23.8977 26.9789 24.2715 26.6051 24.5098L24.6328 25.6908C24.3022 25.8804 23.8796 25.8804 23.5057 25.6908L21.4792 24.5098C21.1487 24.3202 20.9157 23.941 20.9157 23.5185V22.007L19.1276 23.0472V24.6074C19.1276 24.9866 19.3173 25.3604 19.6911 25.5987L23.5003 27.8198C23.8308 28.0094 24.2535 28.0094 24.6273 27.8198L28.4365 25.5987C28.767 25.4091 29 25.0299 29 24.6074V20.1218C29 19.7426 28.8104 19.3688 28.4365 19.1304L24.6273 16.9093Z" fill="white"/>
<path d="M34.6654 16.0704C33.793 12.8146 31.9261 10.0908 29.479 8.13847C29.1306 7.86054 28.7705 7.59825 28.3998 7.35227M23.9296 34.6654C28.3098 33.4917 31.7269 30.518 33.5983 26.7533M5.33462 23.9296C6.2626 27.3929 8.31596 30.2541 10.9958 32.2253M16.0704 5.33457C11.9331 6.44317 8.65501 9.15779 6.72714 12.628" stroke="white" stroke-width="2"/>
</svg>
