<svg width="80" height="80" viewBox="0 0 80 80" fill="none" xmlns="http://www.w3.org/2000/svg">
<rect x="1.5" y="1.5" width="77" height="77" rx="38.5" fill="url(#paint0_linear_596_87)"/>
<rect x="1.5" y="1.5" width="77" height="77" rx="38.5" stroke="url(#paint1_linear_596_87)" stroke-width="3"/>
<path fill-rule="evenodd" clip-rule="evenodd" d="M58.5029 34.3549C59.3276 28.8465 55.1515 25.9042 49.4805 23.8752L51.3454 16.4186L46.8182 15.2547L45.0116 22.4819L41.4011 21.6082L43.2653 14.3238L38.7381 13.1599L36.8732 20.6165C35.899 20.3835 34.9247 20.1505 34.0078 19.9177L27.7613 18.346L26.5378 23.164C26.5378 23.164 29.9192 23.9221 29.8043 23.9791C31.6381 24.4447 31.9776 25.6515 31.9164 26.6272L30.8761 30.7234C32.5515 32.4381 35.0284 33.6231 38.3069 34.2782L40.1177 27.0576C40.3681 27.1197 40.6719 27.1875 41.0153 27.2641C44.2085 27.9763 50.8164 29.4501 49.5544 34.2664C49.4598 34.6434 49.329 34.9783 49.1669 35.275C52.3354 35.7767 54.9799 36.7449 57.1006 38.1796C57.7826 37.1952 58.2709 35.9355 58.5029 34.3549ZM29.7606 35.1162L29.9386 34.4154C30.2043 35.0694 30.6439 35.7016 31.3356 36.2454C34.017 38.3536 38.2138 39.4601 43.9262 39.565C47.7599 39.6354 50.8852 40.1496 53.4675 41.3107C57.0816 43.4534 58.8032 46.6722 56.9423 51.9738C56.9073 52.0719 56.8716 52.1688 56.8354 52.2644C56.7717 51.2554 56.3011 50.0804 54.9764 48.8219C51.7282 45.736 46.8721 43.9824 40.4081 43.5612C35.1518 43.2187 31.1702 42.1172 28.4633 40.2569L29.7604 35.1736C29.8463 35.2026 29.918 35.2172 29.9896 35.2318C30.0613 35.2464 30.1329 35.261 30.2188 35.29C30.1134 35.2191 30.0079 35.1915 29.9156 35.1674C29.8576 35.1523 29.8048 35.1385 29.7606 35.1162ZM27.507 44.0047L26.7309 47.0466C26.4992 47.6198 25.9224 48.4215 24.6615 48.1301C24.7187 48.1877 21.395 47.3151 21.395 47.3151L19.1376 52.474L25.0401 53.9871C26.1289 54.2779 27.2176 54.5688 28.2491 54.8594L26.3266 62.3732L30.8538 63.5371L32.7186 56.0805C33.9793 56.4293 35.1254 56.7203 36.3289 57.0116L34.4642 64.4107L38.9914 65.5746L40.9139 58.0608C47.4318 59.2923 52.5717 59.0935 55.5212 54.8202C53.5175 52.123 51.0875 50.3648 47.9921 49.273C46.3735 53.8692 38.6427 51.8149 35.0662 50.8646L35.0662 50.8646C34.7291 50.775 34.4288 50.6952 34.1741 50.6317L35.1083 47.2081C32.0205 46.589 29.5714 45.5896 27.7608 44.21C27.6724 44.1427 27.5879 44.0742 27.507 44.0047Z" fill="#F7931A"/>
<defs>
<linearGradient id="paint0_linear_596_87" x1="40" y1="0" x2="40" y2="80" gradientUnits="userSpaceOnUse">
<stop stop-color="#090D14"/>
<stop offset="1" stop-color="#1B2445"/>
</linearGradient>
<linearGradient id="paint1_linear_596_87" x1="40" y1="80.0427" x2="40" y2="0.0434107" gradientUnits="userSpaceOnUse">
<stop stop-color="#F4A94E"/>
<stop offset="1" stop-color="#F7931A"/>
</linearGradient>
</defs>
</svg>
