<svg width="32" height="32" viewBox="0 0 32 32" fill="none" xmlns="http://www.w3.org/2000/svg">
<rect width="32" height="32" rx="16" fill="#8F7F61"/>
<g clip-path="url(#clip0_4456_7079)">
<path d="M11.0542 17.4057V13.8623C11.0542 13.6248 11.2122 13.4664 11.4491 13.4664H14.6399V9.83997H11.3543C9.09556 9.83997 7.12109 11.5978 7.12109 13.9257V17.469C7.12109 19.7811 8.82704 21.36 11.1016 21.36C12.539 21.36 13.8501 20.6996 15.2243 19.3694L20.816 13.9059C21.053 13.6684 21.2266 13.4664 21.432 13.4664C21.6215 13.4664 21.7479 13.6209 21.7479 13.8109V17.3376C21.7479 17.5751 21.5899 17.7335 21.353 17.7335H18.1623V21.36H21.4636C23.7067 21.36 25.6811 19.6021 25.6811 17.2584V13.7475C25.6811 11.4355 23.9752 9.83997 21.7005 9.83997C20.279 9.83997 18.9521 10.517 17.5779 11.8472L11.9862 17.3107C11.7492 17.5482 11.5755 17.7335 11.3701 17.7335C11.1806 17.7335 11.0542 17.5957 11.0542 17.4057Z" fill="white"/>
</g>
<defs>
<clipPath id="clip0_4456_7079">
<rect width="19.2" height="12.8" fill="white" transform="translate(6.40039 9.59998)"/>
</clipPath>
</defs>
</svg>
