<svg width="16" height="16" viewBox="0 0 16 16" fill="none" xmlns="http://www.w3.org/2000/svg">
<g clip-path="url(#clip0_555_2663)">
<path d="M8 16C12.4183 16 16 12.4183 16 8C16 3.58172 12.4183 0 8 0C3.58172 0 0 3.58172 0 8C0 12.4183 3.58172 16 8 16Z" fill="#009393"/>
<path fill-rule="evenodd" clip-rule="evenodd" d="M8.00986 8.57159C9.38566 8.57159 10.5355 8.33899 10.8165 8.02819C10.5779 7.76459 9.71486 7.55699 8.61886 7.50019V8.15679C8.42266 8.16699 8.21866 8.17199 8.00966 8.17199C7.80066 8.17199 7.59666 8.16699 7.40006 8.15679V7.50019C6.30446 7.55699 5.44106 7.76459 5.20246 8.02819C5.48386 8.33899 6.63406 8.57159 8.00986 8.57159ZM10.4543 5.48099V6.38519H8.61886V7.01219C9.90806 7.07919 10.8755 7.35479 10.8827 7.68459V8.37219C10.8755 8.70199 9.90806 8.97699 8.61886 9.04419V10.583H7.40026V9.04419C6.11106 8.97719 5.14406 8.70199 5.13686 8.37219V7.68459C5.14406 7.35479 6.11106 7.07919 7.40026 7.01219V6.38519H5.56486V5.48099H10.4543ZM4.84306 4.04199H11.2863C11.4403 4.04199 11.5821 4.12299 11.6589 4.25459L13.5359 7.47779C13.6331 7.64499 13.6043 7.85599 13.4655 7.99139L8.29866 13.035C8.13106 13.1984 7.86186 13.1984 7.69466 13.035L2.53426 7.99819C2.39246 7.85939 2.36566 7.64239 2.47026 7.47439L4.47686 4.24459C4.55506 4.11899 4.69366 4.04199 4.84306 4.04199Z" fill="white"/>
</g>
<defs>
<clipPath id="clip0_555_2663">
<rect width="16" height="16" fill="white"/>
</clipPath>
</defs>
</svg>
