<svg width="140" height="140" viewBox="0 0 140 140" fill="none" xmlns="http://www.w3.org/2000/svg">
<path d="M70.0004 139.533C108.532 139.404 139.662 108.064 139.533 69.5328C139.404 31.002 108.064 -0.128717 69.5328 0.000400193C31.002 0.129517 -0.128717 31.4696 0.000400193 70.0004C0.129516 108.532 31.4696 139.662 70.0004 139.533Z" fill="#0074F0"/>
<path opacity="0.2" d="M113.375 113.096C137.296 89.0151 137.177 50.0786 113.096 26.1576C89.0147 2.23658 50.0782 2.35638 26.1572 26.4372L113.375 113.096Z" fill="white"/>
<path d="M66.9186 42.2124C67.8551 42.1166 68.8055 42.0676 69.7674 42.0676C85.0595 42.0676 97.4563 54.4643 97.4563 69.7565C97.4563 81.6813 89.9179 91.8455 79.3467 95.7436L69.9518 108.956C91.5165 108.857 108.968 91.3445 108.968 69.7565C108.968 49.485 93.5802 32.8075 73.8484 30.7664L66.9186 42.2124Z" fill="white"/>
<path d="M68.8779 30.5664C47.6391 31.0393 30.5674 48.4042 30.5674 69.7565C30.5674 89.7325 45.5093 106.219 64.8264 108.648L72.9183 97.2681C71.8842 97.3852 70.8328 97.4454 69.7674 97.4454C54.4752 97.4454 42.0785 85.0486 42.0785 69.7565C42.0785 57.5022 50.0391 47.1072 61.0711 43.4608L68.8779 30.5664Z" fill="white"/>
<path d="M79.3451 95.7437C89.9163 91.8456 97.4546 81.6814 97.4546 69.7566H108.966C108.966 91.3446 91.5149 108.857 69.9502 108.957L79.3451 95.7437Z" fill="url(#paint0_linear_87_75)"/>
<path d="M68.8779 30.5664C47.6391 31.0393 30.5674 48.4042 30.5674 69.7565C30.5674 69.7565 42.0785 69.9219 42.0785 69.7565C42.0785 57.5022 50.0391 47.1072 61.0711 43.4608L68.8779 30.5664Z" fill="url(#paint1_linear_87_75)"/>
<path d="M69.6964 101.802L89.379 74.084L69.6964 85.6996L50.0244 74.084L69.6964 101.802Z" fill="white"/>
<path opacity="0.1" d="M69.6963 101.802L89.3789 74.084L69.6963 85.6996V101.802Z" fill="#0074F0"/>
<path d="M69.6369 82.0209L89.4174 70.3839L69.6369 37.7126L49.8564 70.3839L69.6369 82.0209Z" fill="url(#paint2_linear_87_75)"/>
<path d="M69.6369 82.0209L89.4174 70.3839L69.6369 37.7126L49.8564 70.3839L69.6369 82.0209Z" fill="white"/>
<path opacity="0.1" d="M69.6377 82.02L49.8572 70.3839L69.6377 37.7126V82.02Z" fill="#0074F0"/>
<path opacity="0.1" d="M69.6369 82.0211V61.1106L49.8564 70.3841L69.6369 82.0211Z" fill="#0074F0"/>
<path opacity="0.1" d="M69.6385 82.0211V61.1106L89.4189 70.3841L69.6385 82.0211Z" fill="#0074F0"/>
<defs>
<linearGradient id="paint0_linear_87_75" x1="43.9567" y1="118.873" x2="87.1284" y2="90.5934" gradientUnits="userSpaceOnUse">
<stop stop-color="#1A82FF" stop-opacity="0.5"/>
<stop offset="1" stop-color="white"/>
</linearGradient>
<linearGradient id="paint1_linear_87_75" x1="90.9229" y1="12.5225" x2="49.6162" y2="42.368" gradientUnits="userSpaceOnUse">
<stop stop-color="#1A82FF" stop-opacity="0.5"/>
<stop offset="1" stop-color="white"/>
</linearGradient>
<linearGradient id="paint2_linear_87_75" x1="27.5544" y1="49.5437" x2="62.2082" y2="70.6914" gradientUnits="userSpaceOnUse">
<stop stop-color="#1C313F"/>
<stop offset="1" stop-color="white"/>
</linearGradient>
</defs>
</svg>
