<svg width="16" height="16" viewBox="0 0 16 16" fill="none" xmlns="http://www.w3.org/2000/svg">
<path fill-rule="evenodd" clip-rule="evenodd" d="M2.71073 12.2892C2.35213 12.0699 2.13281 11.6793 2.13281 11.2598V8.91777C2.13281 8.82811 2.15683 8.74171 2.20165 8.66486C2.34093 8.4247 2.64989 8.3431 2.89002 8.48395L8.17612 11.5656C8.48508 11.7465 8.67559 12.0763 8.67559 12.4349V14.8618C8.67559 14.9723 8.64513 15.0827 8.58753 15.1772C8.41303 15.4621 8.04161 15.5518 7.75665 15.3773L2.71073 12.2892ZM10.5902 7.84198C10.8992 8.02289 11.0897 8.3527 11.0897 8.71126V13.6355C11.0897 13.7812 11.0112 13.9157 10.8848 13.9861L9.72732 14.6377C9.71292 14.6457 9.69692 14.6521 9.68092 14.6569V11.9226C9.68092 11.5688 9.49521 11.2406 9.19105 11.0581L4.54852 8.28065V5.19417C4.54852 5.10451 4.57254 5.01807 4.61736 4.94123C4.75664 4.70109 5.06561 4.61945 5.30574 4.76033L10.5902 7.84198ZM12.9035 4.20483C13.214 4.38412 13.4045 4.7171 13.4045 5.0757V12.2684C13.4045 12.4157 13.3229 12.5517 13.1932 12.6222L12.0966 13.2145V8.20699C12.0966 7.85323 11.9109 7.52662 11.6084 7.34411L6.86338 4.49779V1.56979C6.86338 1.48015 6.88739 1.3937 6.93062 1.31686C7.06989 1.07673 7.37886 0.995083 7.619 1.13436L12.9035 4.20483Z" fill="#00D395"/>
</svg>
