<svg width="20" height="20" viewBox="0 0 20 20" fill="none" xmlns="http://www.w3.org/2000/svg">
<g clip-path="url(#clip0_553_443)">
<path d="M10 20C15.5228 20 20 15.5228 20 10C20 4.47715 15.5228 0 10 0C4.47715 0 0 4.47715 0 10C0 15.5228 4.47715 20 10 20Z" fill="#F7931A"/>
<path d="M8.60224 14.3681V15.409H10.684V14.3681H11.3978C11.881 14.3681 12.3547 14.2335 12.7658 13.9794C13.1769 13.7254 13.5091 13.3618 13.7253 12.9296C13.9414 12.4973 14.0329 12.0135 13.9895 11.5321C13.9461 11.0508 13.7695 10.5911 13.4795 10.2045C13.7695 9.81787 13.9461 9.35815 13.9895 8.87684C14.0329 8.39552 13.9414 7.91163 13.7253 7.47938C13.5091 7.04713 13.1769 6.68361 12.7658 6.42954C12.3547 6.17547 11.881 6.0409 11.3978 6.0409H10.684V5H8.60224V6.0409H6V14.3681H8.60224ZM8.0818 11.2454H11.3978C11.5358 11.2454 11.6682 11.3002 11.7658 11.3978C11.8634 11.4954 11.9182 11.6278 11.9182 11.7658C11.9182 11.9039 11.8634 12.0362 11.7658 12.1338C11.6682 12.2315 11.5358 12.2863 11.3978 12.2863H8.0818V11.2454ZM8.0818 8.12269H11.3978C11.5358 8.12269 11.6682 8.17753 11.7658 8.27513C11.8634 8.37273 11.9182 8.50511 11.9182 8.64314C11.9182 8.78117 11.8634 8.91355 11.7658 9.01116C11.6682 9.10876 11.5358 9.16359 11.3978 9.16359H8.0818V8.12269Z" fill="white"/>
</g>
<defs>
<clipPath id="clip0_553_443">
<rect width="20" height="20" fill="white"/>
</clipPath>
</defs>
</svg>
