<svg width="20" height="20" viewBox="0 0 20 20" fill="none" xmlns="http://www.w3.org/2000/svg">
<g clip-path="url(#clip0_512_809)">
<path d="M10 20C15.5228 20 20 15.5228 20 10C20 4.47715 15.5228 0 10 0C4.47715 0 0 4.47715 0 10C0 15.5228 4.47715 20 10 20Z" fill="#627EEA"/>
<path d="M14.9119 9.74442L10.3592 3.95013C10.3205 3.90085 10.2711 3.86101 10.2147 3.83362C10.1583 3.80623 10.0965 3.79199 10.0338 3.79199C9.97111 3.79199 9.90926 3.80623 9.85288 3.83362C9.79651 3.86101 9.7471 3.90085 9.70837 3.95013L5.15572 9.74442C5.09849 9.81732 5.06738 9.90732 5.06738 9.99999C5.06738 10.0927 5.09849 10.1827 5.15572 10.2556L9.70837 16.0499C9.7471 16.0991 9.79651 16.139 9.85288 16.1664C9.90926 16.1938 9.97111 16.208 10.0338 16.208C10.0965 16.208 10.1583 16.1938 10.2147 16.1664C10.2711 16.139 10.3205 16.0991 10.3592 16.0499L14.9119 10.2556C14.9691 10.1827 15.0002 10.0927 15.0002 9.99999C15.0002 9.90732 14.9691 9.81732 14.9119 9.74442ZM10.4477 11.4268V5.40233L13.9356 9.84117L10.4477 11.4268ZM9.61991 11.4268L6.13195 9.84117L9.61991 5.40233V11.4268Z" fill="white"/>
</g>
<defs>
<clipPath id="clip0_512_809">
<rect width="20" height="20" fill="white"/>
</clipPath>
</defs>
</svg>
