<svg width="700" height="700" viewBox="0 0 700 700" fill="none" xmlns="http://www.w3.org/2000/svg">
<rect width="700" height="700" rx="350" fill="white"/>
<path d="M488.35 436.337C487.011 436.337 486.175 435.5 485.84 433.827L475.297 318.354V181.795C475.297 180.121 475.966 179.285 477.305 179.285H533.535C535.209 179.285 536.046 180.121 536.046 181.795L535.543 318.354L525 433.827C524.666 435.5 523.829 436.337 522.49 436.337H488.35ZM477.305 528.715C475.966 528.715 475.297 527.878 475.297 526.205V471.481C475.297 470.142 475.966 469.473 477.305 469.473H533.535C534.874 469.473 535.543 470.142 535.543 471.481V526.205C535.543 527.878 534.874 528.715 533.535 528.715H477.305Z" fill="black"/>
<path d="M217.853 528.715C216.514 528.715 215.678 527.878 215.343 526.205L156.1 181.293C155.766 179.954 156.268 179.285 157.607 179.285H213.837C215.176 179.285 216.012 179.954 216.347 181.293L248.479 408.222L281.614 181.293C281.949 179.954 282.953 179.285 284.627 179.285H329.812C331.15 179.285 331.987 179.954 332.322 181.293L364.955 408.222L397.589 181.293C397.924 179.954 398.76 179.285 400.099 179.285H455.827C457.501 179.285 458.17 179.954 457.836 181.293L398.091 526.205C397.756 526.874 397.254 527.544 396.585 528.213C395.915 528.548 395.581 528.715 395.581 528.715H334.832C333.828 528.715 332.991 527.878 332.322 526.205L306.717 345.967L281.112 526.205C280.777 527.878 279.941 528.715 278.602 528.715H217.853Z" fill="black"/>
</svg>
