<svg width="20" height="20" viewBox="0 0 20 20" fill="none" xmlns="http://www.w3.org/2000/svg">
<g clip-path="url(#clip0_512_547)">
<path d="M19.7008 12.419C18.3651 17.7762 12.9385 21.0365 7.58004 19.7006C2.22386 18.365 -1.03679 12.9387 0.299519 7.58197C1.63465 2.22419 7.06123 -1.03634 12.418 0.299234C17.776 1.63481 21.0366 7.06161 19.7008 12.419Z" fill="#F7931A"/>
<path d="M6.49838 11.7501C6.49838 11.9251 6.50713 12.0985 6.52408 12.2691C5.86626 11.988 5.28741 11.5499 4.83821 10.9931C4.38902 10.4364 4.08321 9.778 3.94755 9.07562C3.81189 8.37324 3.85054 7.64832 4.0601 6.96434C4.26966 6.28037 4.64374 5.65821 5.14957 5.15238C5.65541 4.64655 6.27756 4.27246 6.96154 4.0629C7.64551 3.85335 8.37044 3.8147 9.07281 3.95036C9.77519 4.08601 10.4336 4.39183 10.9903 4.84102C11.5471 5.29021 11.9852 5.86907 12.2663 6.52689C12.0956 6.50994 11.9223 6.50119 11.7473 6.50119C10.3558 6.50307 9.02178 7.05668 8.03783 8.04063C7.05387 9.02459 6.50026 10.3586 6.49838 11.7501ZM12.6234 8.25009C12.6232 7.98166 12.5982 7.71381 12.5485 7.45002C12.2847 7.40031 12.0168 7.37523 11.7484 7.37509C10.5885 7.3764 9.47642 7.83775 8.65623 8.65794C7.83604 9.47813 7.37468 10.5902 7.37338 11.7501C7.37351 12.0185 7.3986 12.2864 7.4483 12.5502C7.7121 12.5999 7.97994 12.625 8.24838 12.6251C9.4083 12.6238 10.5203 12.1624 11.3405 11.3422C12.1607 10.5221 12.6221 9.41002 12.6234 8.25009ZM13.4727 7.73111C13.4896 7.90173 13.4984 8.07509 13.4984 8.25009C13.4968 9.64199 12.9432 10.9764 11.9589 11.9606C10.9747 12.9449 9.64028 13.4985 8.24838 13.5001C8.07338 13.5001 7.90002 13.4913 7.7294 13.4744C8.01048 14.1322 8.44859 14.7111 9.00533 15.1603C9.56208 15.6095 10.2205 15.9153 10.9229 16.0509C11.6252 16.1866 12.3502 16.1479 13.0341 15.9384C13.7181 15.7288 14.3403 15.3547 14.8461 14.8489C15.3519 14.3431 15.726 13.7209 15.9356 13.0369C16.1451 12.353 16.1838 11.628 16.0481 10.9257C15.9125 10.2233 15.6066 9.56488 15.1575 9.00814C14.7083 8.4514 14.1294 8.01329 13.4716 7.7322L13.4727 7.73111Z" fill="#1D2833"/>
</g>
<defs>
<clipPath id="clip0_512_547">
<rect width="20" height="20" fill="white"/>
</clipPath>
</defs>
</svg>
