<svg width="20" height="20" viewBox="0 0 20 20" fill="none" xmlns="http://www.w3.org/2000/svg">
<g clip-path="url(#clip0_512_819)">
<path d="M10 20C15.5228 20 20 15.5228 20 10C20 4.47715 15.5228 0 10 0C4.47715 0 0 4.47715 0 10C0 15.5228 4.47715 20 10 20Z" fill="#627EEA"/>
<path d="M14.9119 9.74442L10.3592 3.95013C10.3205 3.90085 10.2711 3.86101 10.2147 3.83362C10.1583 3.80623 10.0965 3.79199 10.0338 3.79199C9.97111 3.79199 9.90926 3.80623 9.85288 3.83362C9.79651 3.86101 9.7471 3.90085 9.70837 3.95013L5.15572 9.74442C5.09849 9.81732 5.06738 9.90732 5.06738 9.99999C5.06738 10.0927 5.09849 10.1827 5.15572 10.2556L9.70837 16.0499C9.7471 16.0991 9.79651 16.139 9.85288 16.1664C9.90926 16.1938 9.97111 16.208 10.0338 16.208C10.0965 16.208 10.1583 16.1938 10.2147 16.1664C10.2711 16.139 10.3205 16.0991 10.3592 16.0499L14.9119 10.2556C14.9691 10.1827 15.0002 10.0927 15.0002 9.99999C15.0002 9.90732 14.9691 9.81732 14.9119 9.74442ZM10.4477 11.4268V5.40233L13.9356 9.84117L10.4477 11.4268ZM9.61991 11.4268L6.13195 9.84117L9.61991 5.40233V11.4268Z" fill="white"/>
<g clip-path="url(#clip1_512_819)">
<path d="M10 20C15.5228 20 20 15.5228 20 10C20 4.47715 15.5228 0 10 0C4.47715 0 0 4.47715 0 10C0 15.5228 4.47715 20 10 20Z" fill="#627EEA"/>
<path d="M12.0195 15.2933L14.7695 10.1861C14.8003 10.1289 14.8164 10.065 14.8164 10C14.8164 9.93504 14.8003 9.87109 14.7695 9.81388L12.0195 4.70674C11.9861 4.64458 11.9365 4.59257 11.876 4.55619C11.8155 4.51981 11.7464 4.5004 11.6758 4.5L8.53292 4.5C8.46233 4.5004 8.39315 4.51981 8.33266 4.55619C8.27217 4.59257 8.2226 4.64458 8.18917 4.70674L5.70434 9.31741C5.68819 9.34733 5.68008 9.38094 5.68081 9.41493C5.68154 9.44893 5.69109 9.48215 5.70851 9.51135C5.72593 9.54056 5.75064 9.56474 5.78021 9.58153C5.80978 9.59832 5.8432 9.60714 5.8772 9.60714L8.69104 9.60714L10.1043 6.98237L9.19046 5.28571L11.0182 5.28571L10.1043 6.98237L10.5507 7.81129L11.6758 5.72129L13.7682 9.60714L11.5176 9.60714L10.5507 7.81129L9.37216 10L10.5507 12.1887L10.1043 13.0176L11.0182 14.7143L9.19046 14.7143L10.1043 13.0176L8.69104 10.3929L5.8772 10.3929C5.8432 10.3929 5.80978 10.4017 5.78021 10.4185C5.75064 10.4353 5.72593 10.4594 5.70851 10.4886C5.69109 10.5178 5.68154 10.5511 5.68081 10.5851C5.68008 10.6191 5.68819 10.6527 5.70434 10.6826L8.18916 15.2933C8.2226 15.3554 8.27217 15.4074 8.33266 15.4438C8.39315 15.4802 8.46233 15.4996 8.53291 15.5L11.6758 15.5C11.7464 15.4996 11.8155 15.4802 11.876 15.4438C11.9365 15.4074 11.9861 15.3554 12.0195 15.2933ZM10.5463 12.1887L11.5176 10.3929L13.7682 10.3929L11.6758 14.2787L10.5463 12.1887Z" fill="white"/>
</g>
</g>
<defs>
<clipPath id="clip0_512_819">
<rect width="20" height="20" fill="white"/>
</clipPath>
<clipPath id="clip1_512_819">
<rect width="20" height="20" fill="white"/>
</clipPath>
</defs>
</svg>
