<svg width="33" height="33" viewBox="0 0 33 33" fill="none" xmlns="http://www.w3.org/2000/svg">
<g clip-path="url(#clip0_1031_18787)">
<path d="M-0.00390625 16.5C2.16302 16.5 4.30872 16.9268 6.31069 17.7561C8.31267 18.5853 10.1317 19.8007 11.664 21.333C13.1962 22.8652 14.4116 24.6843 15.2409 26.6862C16.0701 28.6882 16.4969 30.8339 16.4969 33.0008L-0.00390605 33.0008L-0.00390625 16.5Z" fill="#5555F6"/>
<path d="M32.995 16.5C30.8281 16.5 28.6824 16.9268 26.6804 17.7561C24.6784 18.5853 22.8594 19.8007 21.3271 21.333C19.7949 22.8652 18.5794 24.6843 17.7502 26.6862C16.9209 28.6882 16.4941 30.8339 16.4941 33.0008H32.995L32.995 16.5Z" fill="#5555F6"/>
<path d="M-0.00390625 16.5008C2.16302 16.5008 4.30872 16.074 6.31069 15.2448C8.31267 14.4156 10.1317 13.2001 11.664 11.6679C13.1962 10.1356 14.4116 8.31658 15.2409 6.3146C16.0701 4.31263 16.4969 2.16692 16.4969 0L-0.00390605 9.47697e-07L-0.00390625 16.5008Z" fill="#FF4D4D"/>
<path d="M32.995 16.5008C30.8281 16.5008 28.6824 16.074 26.6804 15.2448C24.6784 14.4156 22.8594 13.2001 21.3271 11.6679C19.7949 10.1356 18.5794 8.31658 17.7502 6.3146C16.9209 4.31263 16.4941 2.16692 16.4941 0L32.995 3.30829e-06L32.995 16.5008Z" fill="#FF4D4D"/>
</g>
<defs>
<clipPath id="clip0_1031_18787">
<rect x="-0.00195312" width="33.0016" height="33.0016" rx="16.5008" fill="white"/>
</clipPath>
</defs>
</svg>
