<svg width="20" height="20" viewBox="0 0 20 20" fill="none" xmlns="http://www.w3.org/2000/svg">
<g clip-path="url(#clip0_512_627)">
<path d="M19.7008 12.419C18.3651 17.7762 12.9385 21.0365 7.58004 19.7006C2.22386 18.365 -1.03679 12.9387 0.299519 7.58197C1.63465 2.22419 7.06123 -1.03634 12.418 0.299234C17.776 1.63481 21.0366 7.06161 19.7008 12.419Z" fill="#C0C0C0"/>
<path d="M9.54545 7.27273C9.54545 7.72223 9.41216 8.16164 9.16243 8.53539C8.9127 8.90914 8.55775 9.20044 8.14246 9.37245C7.72718 9.54447 7.27021 9.58948 6.82934 9.50178C6.38848 9.41409 5.98351 9.19763 5.66567 8.87979C5.34782 8.56194 5.13136 8.15698 5.04367 7.71611C4.95598 7.27525 5.00098 6.81828 5.173 6.40299C5.34502 5.98771 5.63632 5.63275 6.01007 5.38302C6.38382 5.13329 6.82322 5 7.27273 5C7.87549 5 8.45357 5.23945 8.87979 5.66567C9.30601 6.09189 9.54545 6.66996 9.54545 7.27273ZM12.7273 9.54545C13.1768 9.54545 13.6162 9.41216 13.9899 9.16243C14.3637 8.9127 14.655 8.55775 14.827 8.14246C14.999 7.72718 15.044 7.27021 14.9563 6.82934C14.8686 6.38848 14.6522 5.98351 14.3343 5.66567C14.0165 5.34782 13.6115 5.13136 13.1707 5.04367C12.7298 4.95598 12.2728 5.00098 11.8575 5.173C11.4423 5.34502 11.0873 5.63632 10.8376 6.01007C10.5878 6.38382 10.4545 6.82322 10.4545 7.27273C10.4545 7.87549 10.694 8.45357 11.1202 8.87979C11.5464 9.30601 12.1245 9.54545 12.7273 9.54545ZM7.27273 10.4545C6.82322 10.4545 6.38382 10.5878 6.01007 10.8376C5.63632 11.0873 5.34502 11.4423 5.173 11.8575C5.00098 12.2728 4.95598 12.7298 5.04367 13.1707C5.13136 13.6115 5.34782 14.0165 5.66567 14.3343C5.98351 14.6522 6.38848 14.8686 6.82934 14.9563C7.27021 15.044 7.72718 14.999 8.14246 14.827C8.55775 14.655 8.9127 14.3637 9.16243 13.9899C9.41216 13.6162 9.54545 13.1768 9.54545 12.7273C9.54545 12.1245 9.30601 11.5464 8.87979 11.1202C8.45357 10.694 7.87549 10.4545 7.27273 10.4545ZM12.7273 10.4545C12.2778 10.4545 11.8384 10.5878 11.4646 10.8376C11.0909 11.0873 10.7996 11.4423 10.6275 11.8575C10.4555 12.2728 10.4105 12.7298 10.4982 13.1707C10.5859 13.6115 10.8024 14.0165 11.1202 14.3343C11.4381 14.6522 11.843 14.8686 12.2839 14.9563C12.7248 15.044 13.1817 14.999 13.597 14.827C14.0123 14.655 14.3672 14.3637 14.617 13.9899C14.8667 13.6162 15 13.1768 15 12.7273C15 12.1245 14.7606 11.5464 14.3343 11.1202C13.9081 10.694 13.33 10.4545 12.7273 10.4545Z" fill="#343330"/>
</g>
<defs>
<clipPath id="clip0_512_627">
<rect width="20" height="20" fill="white"/>
</clipPath>
</defs>
</svg>

