<svg width="20" height="20" viewBox="0 0 20 20" fill="none" xmlns="http://www.w3.org/2000/svg">
<g clip-path="url(#clip0_512_650)">
<path d="M19.7008 12.419C18.3651 17.7762 12.9385 21.0365 7.58004 19.7006C2.22386 18.365 -1.03679 12.9387 0.299519 7.58197C1.63465 2.22419 7.06123 -1.03634 12.418 0.299234C17.776 1.63481 21.0366 7.06161 19.7008 12.419Z" fill="#C0C0C0"/>
<path d="M7.79841 7.09719C7.71519 7.01401 7.64919 6.91525 7.60415 6.80655C7.55911 6.69785 7.53593 6.58135 7.53593 6.46369C7.53593 6.34603 7.55911 6.22953 7.60415 6.12083C7.64919 6.01213 7.71519 5.91337 7.79841 5.83019L9.36648 4.26159C9.5347 4.09376 9.76262 3.99951 10.0002 3.99951C10.2379 3.99951 10.4658 4.09376 10.634 4.26159L12.2021 5.83019C12.2853 5.91337 12.3513 6.01213 12.3963 6.12083C12.4414 6.22953 12.4646 6.34603 12.4646 6.46369C12.4646 6.58135 12.4414 6.69785 12.3963 6.80655C12.3513 6.91525 12.2853 7.01401 12.2021 7.09719L10.634 8.66579C10.4658 8.83362 10.2379 8.92787 10.0002 8.92787C9.76262 8.92787 9.5347 8.83362 9.36648 8.66579L7.79841 7.09719ZM15.7384 9.36599L14.1698 7.79738C14.0017 7.62959 13.7738 7.53535 13.5363 7.53535C13.2988 7.53535 13.0709 7.62959 12.9028 7.79738L11.3342 9.36599C11.1664 9.53421 11.0721 9.76213 11.0721 9.99975C11.0721 10.2374 11.1664 10.4653 11.3342 10.6335L12.9028 12.2021C13.0709 12.3699 13.2988 12.4642 13.5363 12.4642C13.7738 12.4642 14.0017 12.3699 14.1698 12.2021L15.7384 10.6335C15.9062 10.4653 16.0005 10.2374 16.0005 9.99975C16.0005 9.76213 15.9062 9.53421 15.7384 9.36599ZM8.66682 9.36599L7.09768 7.79738C6.92954 7.62959 6.70171 7.53535 6.46418 7.53535C6.22664 7.53535 5.99881 7.62959 5.83068 7.79738L4.26207 9.36599C4.09425 9.53421 4 9.76213 4 9.99975C4 10.2374 4.09425 10.4653 4.26207 10.6335L5.83068 12.2021C5.99881 12.3699 6.22664 12.4642 6.46418 12.4642C6.70171 12.4642 6.92954 12.3699 7.09768 12.2021L8.66628 10.6335C8.83411 10.4653 8.92836 10.2374 8.92836 9.99975C8.92836 9.76213 8.83411 9.53421 8.66628 9.36599H8.66682ZM10.6345 11.3337C10.4663 11.1659 10.2384 11.0716 10.0008 11.0716C9.76316 11.0716 9.53524 11.1659 9.36701 11.3337L7.79841 12.9023C7.71519 12.9855 7.64919 13.0843 7.60415 13.193C7.55911 13.3017 7.53593 13.4182 7.53593 13.5358C7.53593 13.6535 7.55911 13.77 7.60415 13.8787C7.64919 13.9874 7.71519 14.0861 7.79841 14.1693L9.36648 15.7379C9.5347 15.9057 9.76262 16 10.0002 16C10.2379 16 10.4658 15.9057 10.634 15.7379L12.2021 14.1693C12.2853 14.0861 12.3513 13.9874 12.3963 13.8787C12.4414 13.77 12.4646 13.6535 12.4646 13.5358C12.4646 13.4182 12.4414 13.3017 12.3963 13.193C12.3513 13.0843 12.2853 12.9855 12.2021 12.9023L10.6345 11.3337Z" fill="#343330"/>
</g>
<defs>
<clipPath id="clip0_512_650">
<rect width="20" height="20" fill="white"/>
</clipPath>
</defs>
</svg>
