<svg width="16" height="16" viewBox="0 0 16 16" fill="none" xmlns="http://www.w3.org/2000/svg">
<path d="M6.80762 13.245C7.1123 13.245 7.35449 13.1121 7.52637 12.8465L12.8206 4.23975C12.9535 4.03662 13.0003 3.87256 13.0003 3.7085C13.0003 3.32568 12.7503 3.06787 12.3597 3.06787C12.0785 3.06787 11.9222 3.16162 11.7503 3.43506L6.77637 11.659L3.94824 7.84652C3.76855 7.60433 3.59668 7.50277 3.33887 7.50277C2.94824 7.50277 2.66699 7.7762 2.66699 8.16683C2.66699 8.33089 2.7373 8.51058 2.87012 8.68245L6.06543 12.8309C6.28418 13.1121 6.50293 13.245 6.80762 13.245Z" fill="#00AD79"/>
</svg>
