<svg width="150" height="191" viewBox="0 0 150 191" fill="none" xmlns="http://www.w3.org/2000/svg">
<path opacity="0.04" fill-rule="evenodd" clip-rule="evenodd" d="M7.66033 148.984C2.85036 146.142 0 140.814 0 135.308V104.226C0 102.983 0.356295 101.917 0.890736 100.851C2.67221 97.6542 6.94774 96.5885 9.97624 98.3646L80.3444 139.215C84.4418 141.702 86.9359 145.965 86.9359 150.76V182.908C86.9359 184.329 86.5796 185.927 85.6888 187.171C83.3729 190.901 78.3848 192.144 74.6437 189.835L7.66033 148.984ZM112.589 89.8392C116.686 92.3258 119.181 96.5885 119.181 101.384V166.745C119.181 168.699 118.112 170.475 116.508 171.363L101.01 180.066C100.831 180.244 100.653 180.244 100.475 180.244V144.011C100.475 139.393 97.981 134.953 93.8836 132.466L32.0665 95.5228V54.6721C32.0665 53.4288 32.4228 52.3631 32.9572 51.2974C34.7387 48.1004 39.0143 47.0347 42.0428 48.8109L112.589 89.8392ZM143.409 41.7064C147.506 44.0153 150 48.4556 150 53.2512V148.806C150 150.76 148.931 152.536 147.15 153.424L132.542 161.239V94.8124C132.542 90.1945 130.048 85.7542 126.128 83.4452L62.886 45.4362V6.71682C62.886 5.47353 63.2423 4.40787 63.7767 3.3422C65.5582 0.145181 69.8337 -0.920507 72.8622 0.855613L143.409 41.7064Z" fill="white"/>
</svg>
