<svg width="13" height="12" viewBox="0 0 13 12" fill="none" xmlns="http://www.w3.org/2000/svg">
<path d="M10.4839 0.857422C10.7018 0.857422 10.9064 0.961317 11.0356 1.13672L12.5151 3.14355C12.6358 3.30725 12.6247 3.53339 12.4888 3.68457L6.64749 10.1742C6.64716 10.1746 6.64697 10.1751 6.64697 10.1756V10.1783C6.64697 10.1793 6.64559 10.1798 6.64494 10.1789C6.64449 10.1783 6.64359 10.1783 6.64314 10.1789C6.64249 10.1798 6.64111 10.1793 6.64111 10.1783V10.1756C6.64111 10.1751 6.64093 10.1746 6.64059 10.1742L0.799316 3.68457C0.663483 3.53341 0.652408 3.3072 0.772949 3.14355L2.25244 1.13672C2.38164 0.961382 2.58641 0.857499 2.8042 0.857422H10.4839Z" fill="#6D7E8F"/>
</svg>
