<svg width="24" height="24" viewBox="0 0 24 24" fill="none" xmlns="http://www.w3.org/2000/svg">
<path d="M19.667 15.9411C19.597 15.981 19.5197 16.0067 19.4397 16.0168C19.3597 16.0269 19.2785 16.021 19.2008 15.9997C19.123 15.9783 19.0502 15.9418 18.9866 15.8923C18.9229 15.8428 18.8697 15.7812 18.8299 15.7111L17.3733 13.166C16.5265 13.7385 15.5924 14.1699 14.6074 14.4431L15.0574 17.1431C15.0707 17.2226 15.0682 17.3039 15.05 17.3824C15.0319 17.4609 14.9984 17.5351 14.9516 17.6006C14.9047 17.6662 14.8454 17.7219 14.777 17.7646C14.7086 17.8072 14.6325 17.8359 14.553 17.8491C14.5203 17.8545 14.4873 17.8573 14.4541 17.8576C14.309 17.8573 14.1687 17.8057 14.0581 17.7118C13.9475 17.6179 13.8738 17.4878 13.85 17.3447L13.4077 14.6938C12.4749 14.8236 11.5286 14.8236 10.5958 14.6938L10.1535 17.3447C10.1297 17.4881 10.0557 17.6184 9.94482 17.7123C9.83391 17.8062 9.69323 17.8577 9.54788 17.8576C9.51398 17.8574 9.48015 17.8546 9.44669 17.8491C9.36719 17.8359 9.29108 17.8072 9.2227 17.7646C9.15431 17.7219 9.095 17.6662 9.04816 17.6006C9.00131 17.5351 8.96785 17.4609 8.94968 17.3824C8.93151 17.3039 8.92899 17.2226 8.94227 17.1431L9.39456 14.4431C8.40996 14.169 7.47638 13.7369 6.6302 13.1637L5.17826 15.7111C5.09693 15.8528 4.96264 15.9564 4.80493 15.9991C4.64722 16.0418 4.47901 16.0201 4.3373 15.9388C4.19559 15.8574 4.09199 15.7231 4.04929 15.5654C4.00659 15.4077 4.02829 15.2395 4.10962 15.0978L5.64282 12.4147C5.10428 11.9494 4.60907 11.4363 4.16328 10.8815C4.10768 10.8194 4.06532 10.7467 4.03878 10.6677C4.01224 10.5887 4.00207 10.5051 4.0089 10.4221C4.01573 10.339 4.03941 10.2582 4.0785 10.1846C4.11759 10.1111 4.17127 10.0462 4.23625 9.99404C4.30124 9.94189 4.37618 9.90352 4.45649 9.88129C4.5368 9.85905 4.62079 9.85342 4.70335 9.86473C4.78591 9.87604 4.8653 9.90405 4.93667 9.94707C5.00804 9.99008 5.0699 10.0472 5.11846 10.1149C6.39102 11.6895 8.61723 13.5646 12.001 13.5646C15.3848 13.5646 17.611 11.6872 18.8835 10.1149C18.9316 10.0458 18.9933 9.98732 19.0649 9.94309C19.1364 9.89887 19.2164 9.86985 19.2996 9.85784C19.3829 9.84583 19.4678 9.85109 19.549 9.87328C19.6301 9.89548 19.7058 9.93414 19.7714 9.98685C19.837 10.0396 19.891 10.1052 19.9302 10.1797C19.9693 10.2542 19.9926 10.336 19.9988 10.4199C20.005 10.5038 19.9938 10.5881 19.966 10.6675C19.9382 10.7469 19.8944 10.8198 19.8372 10.8815C19.3914 11.4363 18.8962 11.9494 18.3577 12.4147L19.8909 15.0978C19.932 15.1677 19.9589 15.2452 19.9699 15.3256C19.9809 15.406 19.9759 15.4877 19.9551 15.5662C19.9342 15.6446 19.8981 15.7181 19.8486 15.7825C19.7992 15.8468 19.7374 15.9007 19.667 15.9411Z" fill="#7A8A99"/>
</svg>
