<svg width="15" height="14" viewBox="0 0 15 14" fill="none" xmlns="http://www.w3.org/2000/svg">
<path d="M9.5 12.3984L9.5 8.5M9.5 1.60681L9.5 3" stroke="#516070" stroke-linecap="round"/>
<path d="M9.5 3.5C10.3284 3.5 11 4.17157 11 5C11 5.82843 10.3284 6.5 9.5 6.5C8.67157 6.5 8 5.82843 8 5C8 4.17157 8.67157 3.5 9.5 3.5Z" stroke="#516070"/>
<path d="M3.5 1.60938L3.5 5.50781M3.5 12.401L3.5 11.0078" stroke="#516070" stroke-linecap="round"/>
<path d="M3.5 10.5078C2.67157 10.5078 2 9.83624 2 9.00781C2 8.17939 2.67157 7.50781 3.5 7.50781C4.32843 7.50781 5 8.17939 5 9.00781C5 9.83624 4.32843 10.5078 3.5 10.5078Z" stroke="#516070"/>
</svg>
