<svg width="13" height="12" viewBox="0 0 13 12" fill="none" xmlns="http://www.w3.org/2000/svg">
<g clip-path="url(#clip0_65_6454)">
<path d="M11.5 8C11.5 9.657 9.0375 11 6 11C3.01674 11 0.588799 9.70469 0.50293 8.08887L0.5 8V7C0.5 8.657 2.9625 10 6 10C9.0375 10 11.5 8.657 11.5 7V8ZM11.5 6C11.5 7.657 9.0375 9 6 9C3.01674 9 0.588799 7.70469 0.50293 6.08887L0.5 6V5C0.5 6.657 2.9625 8 6 8C9.0375 8 11.5 6.657 11.5 5V6ZM6 1C9.0375 1 11.5 2.343 11.5 4C11.5 5.657 9.0375 7 6 7C2.9625 7 0.5 5.657 0.5 4C0.5 2.343 2.9625 1 6 1Z" fill="#6D7E8F"/>
</g>
<defs>
<clipPath id="clip0_65_6454">
<rect width="12" height="12" fill="white" transform="translate(0.22998)"/>
</clipPath>
</defs>
</svg>
