<svg width="20" height="20" viewBox="0 0 20 20" fill="none" xmlns="http://www.w3.org/2000/svg">
<g clip-path="url(#clip0_512_730)">
<path d="M19.7008 12.419C18.3651 17.7762 12.9385 21.0365 7.58004 19.7006C2.22386 18.365 -1.03679 12.9387 0.299519 7.58197C1.63465 2.22419 7.06123 -1.03634 12.418 0.299234C17.776 1.63481 21.0366 7.06161 19.7008 12.419Z" fill="#3877FF"/>
<path d="M13.2227 4.92236C13.4493 4.92248 13.6668 5.01215 13.8271 5.17236C13.9876 5.33281 14.0781 5.55093 14.0781 5.77783V7.44482C14.078 7.67157 13.9875 7.88897 13.8271 8.04932C13.6668 8.20966 13.4494 8.30018 13.2227 8.30029C12.9957 8.30029 12.7776 8.20976 12.6172 8.04932C12.4569 7.88898 12.3663 7.67155 12.3662 7.44482V6.6333H8.2666L10.5732 9.7085C10.6843 9.85659 10.7441 10.0371 10.7441 10.2222C10.7441 10.4073 10.6843 10.5877 10.5732 10.7358L8.2666 13.811H12.3662V12.9995C12.3663 12.7728 12.4569 12.5554 12.6172 12.395C12.7776 12.2346 12.9957 12.144 13.2227 12.144C13.4494 12.1442 13.6668 12.2347 13.8271 12.395C13.9875 12.5554 14.078 12.7728 14.0781 12.9995V14.6665C14.0781 14.8934 13.9876 15.1115 13.8271 15.272C13.6668 15.4322 13.4493 15.5219 13.2227 15.522H6.55566C6.39678 15.522 6.24062 15.4776 6.10547 15.394C5.97048 15.3105 5.86103 15.1913 5.79004 15.0493C5.719 14.9072 5.68886 14.7476 5.70312 14.5894C5.71745 14.4313 5.77584 14.2798 5.87109 14.1528L8.81836 10.2222L5.87109 6.2915C5.77584 6.1645 5.71745 6.01308 5.70312 5.85498C5.68886 5.69675 5.719 5.53712 5.79004 5.39502C5.86103 5.25304 5.97048 5.13381 6.10547 5.05029C6.24063 4.96676 6.39678 4.92236 6.55566 4.92236H13.2227Z" fill="#1D2833" stroke="#1D2833" stroke-width="0.6"/>
</g>
<defs>
<clipPath id="clip0_512_730">
<rect width="20" height="20" fill="white"/>
</clipPath>
</defs>
</svg>
