<svg width="11" height="10" viewBox="0 0 11 10" fill="none" xmlns="http://www.w3.org/2000/svg">
<path d="M10.1199 1.76H1.99988C1.88318 1.76 1.77127 1.71364 1.68875 1.63113C1.60624 1.54861 1.55988 1.4367 1.55988 1.32C1.55988 1.2033 1.60624 1.09139 1.68875 1.00887C1.77127 0.926357 1.88318 0.88 1.99988 0.88H8.79992C8.91661 0.88 9.02853 0.833643 9.11104 0.751127C9.19356 0.668611 9.23992 0.556695 9.23992 0.44C9.23992 0.323305 9.19356 0.211389 9.11104 0.128873C9.02853 0.0463571 8.91661 0 8.79992 0H1.99988C1.64979 0 1.31405 0.139071 1.0665 0.386619C0.818949 0.634167 0.679878 0.969914 0.679878 1.32V8.36C0.679878 8.71008 0.818949 9.04583 1.0665 9.29338C1.31405 9.54093 1.64979 9.68 1.99988 9.68H10.1199C10.3533 9.68 10.5771 9.58729 10.7422 9.42225C10.9072 9.25722 10.9999 9.03339 10.9999 8.8V2.64C10.9999 2.40661 10.9072 2.18278 10.7422 2.01775C10.5771 1.85271 10.3533 1.76 10.1199 1.76ZM8.13992 6.16C8.00938 6.16 7.88178 6.12129 7.77324 6.04877C7.6647 5.97625 7.58011 5.87317 7.53016 5.75257C7.4802 5.63197 7.46713 5.49927 7.4926 5.37124C7.51806 5.24321 7.58092 5.12561 7.67323 5.03331C7.76553 4.94101 7.88313 4.87815 8.01116 4.85268C8.13918 4.82721 8.27189 4.84029 8.39249 4.89024C8.51309 4.94019 8.61616 5.02479 8.68869 5.13332C8.76121 5.24186 8.79992 5.36946 8.79992 5.5C8.79992 5.67504 8.73038 5.84292 8.60661 5.96669C8.48283 6.09046 8.31496 6.16 8.13992 6.16Z" fill="ar(--secondary-20)"/>
</svg>
