<svg width="20" height="20" viewBox="0 0 20 20" fill="none" xmlns="http://www.w3.org/2000/svg">
<g clip-path="url(#clip0_65_330)">
<g clip-path="url(#clip1_65_330)">
<g clip-path="url(#clip2_65_330)">
<path d="M16.1637 3.43066H3.82324V14.6541H16.1637V3.43066Z" fill="white"/>
<path fill-rule="evenodd" clip-rule="evenodd" d="M19.9871 10.0004C19.9871 15.5159 15.5159 19.9871 10.0004 19.9871C4.48487 19.9871 0.0136719 15.5159 0.0136719 10.0004C0.0136719 4.48487 4.48487 0.0136719 10.0004 0.0136719C15.5159 0.0136719 19.9871 4.48487 19.9871 10.0004ZM7.17043 13.9746H5.23229C4.82503 13.9746 4.62386 13.9746 4.5012 13.8961C4.36871 13.8102 4.28775 13.6679 4.27794 13.5109C4.27057 13.3662 4.37117 13.1895 4.57234 12.8362L9.35785 4.4011C9.56148 4.04291 9.66451 3.86382 9.79454 3.79758C9.93438 3.72644 10.1012 3.72644 10.2411 3.79758C10.3711 3.86382 10.4741 4.04291 10.6777 4.4011L11.6615 6.11845L11.6666 6.12721C11.8865 6.51148 11.998 6.70634 12.0467 6.91087C12.1007 7.13412 12.1007 7.36964 12.0467 7.5929C11.9976 7.79898 11.8872 7.99525 11.664 8.38533L9.15028 12.8289L9.14378 12.8402C8.92239 13.2277 8.8102 13.424 8.65471 13.5722C8.48543 13.7341 8.2818 13.8518 8.05854 13.9182C7.85491 13.9746 7.62676 13.9746 7.17043 13.9746ZM12.0649 13.9746H14.842C15.2517 13.9746 15.4578 13.9746 15.5806 13.8937C15.713 13.8078 15.7964 13.663 15.8038 13.5061C15.8109 13.3661 15.7125 13.1963 15.5197 12.8635C15.513 12.8522 15.5064 12.8406 15.4996 12.8289L14.1085 10.4492L14.0927 10.4224C13.8972 10.0918 13.7985 9.92489 13.6718 9.86037C13.532 9.78922 13.3675 9.78922 13.2278 9.86037C13.1002 9.92661 12.9971 10.1008 12.7935 10.4516L11.4074 12.8314L11.4026 12.8396C11.1997 13.1898 11.0983 13.3649 11.1056 13.5085C11.1154 13.6655 11.1964 13.8102 11.3289 13.8961C11.4491 13.9746 11.6552 13.9746 12.0649 13.9746Z" fill="#E84142"/>
</g>
</g>
</g>
<defs>
<clipPath id="clip0_65_330">
<rect width="20" height="20" fill="white"/>
</clipPath>
<clipPath id="clip1_65_330">
<rect width="20" height="20" fill="white"/>
</clipPath>
<clipPath id="clip2_65_330">
<rect width="19.9867" height="20" fill="white" transform="translate(0.00683594)"/>
</clipPath>
</defs>
</svg>
